<svg xmlns="http://www.w3.org/2000/svg" xmlns:xlink="http://www.w3.org/1999/xlink" id="Layer_1" x="0" y="0" version="1.1" viewBox="0 0 153.1 240.9" xml:space="preserve" style="enable-background:new 0 0 153.1 240.9"><style type="text/css">.st8{fill:#fff}.st8,.st9{clip-path:url(#XMLID_2_)}.st10{fill:none;stroke:#3aaa35;stroke-width:.7638;stroke-miterlimit:10}.st11{fill:#3aaa35}.st12,.st13{fill:none;stroke:#f2e734;stroke-width:.5184;stroke-miterlimit:10}.st13{stroke:#f39325;stroke-width:.7638}.st14{fill:#f39325}.st15,.st16{fill:none;stroke:#e30613;stroke-width:.5184;stroke-miterlimit:10}.st16{stroke:#662483;stroke-width:.7125}.st17{fill:#662483}.st18{fill:none;stroke:#005ca9;stroke-width:.8175;stroke-miterlimit:10}.st19{fill:#e94e1b}.st20{fill:#4e55a2}.st21{fill:#005ca9}.st22{fill:#169fdb}.st23{fill:#00b2bb}.st24{fill:none;stroke:#1275bb;stroke-width:.7638;stroke-miterlimit:10}.st26{fill:#0f265c}.st27{fill:#f2e734}.st28{fill:#f39207}.st29{fill:#e30613}.st30{fill:#164194}.st31{fill:#009ba4}.st32{fill:#95c11f}.st33{fill:#f9b233}.st34{fill:#e94e1d}.st35{fill:#e71d73}.st36{fill:#1275bb}</style><g><g><defs><rect id="XMLID_3_" width="240.3" height="153.2" x="-43.6" y="43.9" transform="matrix(6.123234e-17 -1 1 6.123234e-17 -43.9371 197.0079)"/></defs><use xlink:href="#XMLID_3_" style="overflow:visible;fill:#fff"/><clipPath id="XMLID_2_"><use xlink:href="#XMLID_3_" style="overflow:visible"/></clipPath><rect width="240.3" height="153.2" x="-43.6" y="43.9" class="st8" transform="matrix(6.123234e-17 -1 1 6.123234e-17 -43.9371 197.0079)"/><rect id="XMLID_4_" width="240.3" height="153.2" x="-43.6" y="43.9" class="st8" transform="matrix(6.123234e-17 -1 1 6.123234e-17 -43.9371 197.0079)"/><g class="st9"><path d="M4.5,203c0,5.6-4.5,10.1-10.1,10.1c-5.6,0-10.1-4.5-10.1-10.1c0-5.6,4.5-10.1,10.1-10.1 C0,193,4.5,197.5,4.5,203 M-25.7,203c0,11.1,9,20.2,20.2,20.2c11.1,0,20.2-9,20.2-20.2c0-11.1-9-20.2-20.2-20.2 C-16.7,182.9-25.7,191.9-25.7,203" class="st10"/><path d="M100.2,215.7c0,2.1-1.7,3.8-3.8,3.8c-2.1,0-3.8-1.7-3.8-3.8c0-2.1,1.7-3.8,3.8-3.8 C98.5,211.9,100.2,213.6,100.2,215.7 M88.9,215.7c0,4.2,3.4,7.5,7.5,7.5c4.2,0,7.5-3.4,7.5-7.5c0-4.2-3.4-7.5-7.5-7.5 C92.2,208.2,88.9,211.5,88.9,215.7" class="st11"/><path d="M39.4,14.6c0,1.5-1.2,2.7-2.7,2.7c-1.5,0-2.7-1.2-2.7-2.7c0-1.5,1.2-2.7,2.7-2.7 C38.2,11.9,39.4,13.1,39.4,14.6 M31.3,14.6c0,3,2.4,5.4,5.4,5.4c3,0,5.4-2.4,5.4-5.4c0-3-2.4-5.4-5.4-5.4 C33.8,9.2,31.3,11.6,31.3,14.6" class="st11"/><path d="M117.4-30.1c6.9,6.9,6.9,18.1,0,25.1c-6.9,6.9-18.1,6.9-25.1,0c-6.9-6.9-6.9-18.1,0-25.1 C99.3-37,110.5-37,117.4-30.1 M79.8-42.6C66-28.8,66-6.3,79.8,7.5c13.8,13.8,36.3,13.8,50.1,0c13.8-13.8,13.8-36.3,0-50.1 C116.1-56.4,93.7-56.4,79.8-42.6" class="st12"/><path d="M158,225.6c0,6.2-5.1,11.3-11.3,11.3c-6.2,0-11.3-5.1-11.3-11.3c0-6.2,5.1-11.3,11.3-11.3 C152.9,214.3,158,219.4,158,225.6 M124.1,225.6c0,12.5,10.1,22.6,22.6,22.6c12.5,0,22.6-10.1,22.6-22.6 c0-12.5-10.1-22.6-22.6-22.6C134.2,203,124.1,213.2,124.1,225.6" class="st13"/><path d="M142.2,26.6c0,2.7-2.2,4.9-4.9,4.9c-2.7,0-4.9-2.2-4.9-4.9s2.2-4.9,4.9-4.9C140,21.7,142.2,23.9,142.2,26.6 M127.6,26.6c0,5.4,4.4,9.7,9.7,9.7c5.4,0,9.7-4.4,9.7-9.7s-4.4-9.7-9.7-9.7C131.9,16.9,127.6,21.2,127.6,26.6" class="st14"/><path d="M58.4-11.3c2.8,2.8,2.8,7.4,0,10.2c-2.8,2.8-7.4,2.8-10.2,0c-2.8-2.8-2.8-7.4,0-10.2 C51-14.1,55.6-14.1,58.4-11.3 M43.1-16.4c-5.6,5.6-5.6,14.7,0,20.3c5.6,5.6,14.7,5.6,20.3,0c5.6-5.6,5.6-14.7,0-20.3 C57.8-22,48.7-22,43.1-16.4" class="st15"/><path d="M191.7-25.4c0,8.1-6.6,14.7-14.7,14.7c-8.1,0-14.7-6.6-14.7-14.7c0-8.1,6.6-14.7,14.7-14.7 C185.1-40,191.7-33.5,191.7-25.4 M147.7-25.4c0,16.2,13.1,29.3,29.3,29.3c16.2,0,29.3-13.1,29.3-29.3c0-16.2-13.1-29.3-29.3-29.3 C160.9-54.7,147.7-41.6,147.7-25.4" class="st16"/><path d="M3.7,239.1c0,2.3-1.8,4.1-4.1,4.1c-2.3,0-4.1-1.8-4.1-4.1c0-2.3,1.8-4.1,4.1-4.1 C1.9,235,3.7,236.9,3.7,239.1 M-8.6,239.1c0,4.5,3.7,8.2,8.2,8.2c4.5,0,8.2-3.7,8.2-8.2c0-4.5-3.7-8.2-8.2-8.2 C-4.9,230.9-8.6,234.6-8.6,239.1" class="st17"/><path d="M81.8,28.1c0,1.6-1.3,2.9-2.9,2.9c-1.6,0-2.9-1.3-2.9-2.9c0-1.6,1.3-2.9,2.9-2.9 C80.5,25.2,81.8,26.5,81.8,28.1 M73.1,28.1c0,3.2,2.6,5.8,5.8,5.8c3.2,0,5.8-2.6,5.8-5.8c0-3.2-2.6-5.8-5.8-5.8 C75.7,22.2,73.1,24.9,73.1,28.1" class="st17"/><path d="M14.4-3.3c4,4,4,10.4,0,14.4c-4,4-10.4,4-14.4,0c-4-4-4-10.4,0-14.4C4-7.2,10.4-7.2,14.4-3.3 M-7.2-10.4 c-7.9,7.9-7.9,20.8,0,28.7c7.9,7.9,20.8,7.9,28.7,0c7.9-7.9,7.9-20.8,0-28.7C13.6-18.4,0.8-18.4-7.2-10.4" class="st18"/><path d="M21.9,244.9c-2.1-5.1,0.3-11,5.4-13.2c5.1-2.1,11,0.3,13.2,5.4c2.1,5.1-0.3,11-5.4,13.2 C29.9,252.5,24,250,21.9,244.9" class="st19"/><path d="M125.6,252c-2.1,5.2-8,7.6-13.1,5.5c-5.2-2.1-7.6-8-5.5-13.1c2.1-5.2,8-7.6,13.1-5.5 C125.3,241,127.7,246.9,125.6,252" class="st21"/><path d="M60.1,221.8c1.3,3.2-0.2,6.8-3.3,8.1c-3.2,1.3-6.8-0.2-8.1-3.3c-1.3-3.2,0.2-6.8,3.3-8.1 C55.1,217.1,58.8,218.6,60.1,221.8" class="st22"/><path d="M149.3,0.3c2,0.8,3,3.1,2.1,5.1c-0.8,2-3.1,3-5.1,2.1c-2-0.8-3-3.1-2.1-5.1C145,0.5,147.3-0.5,149.3,0.3" class="st23"/><path d="M88.6,254.5L88.6,254.5c0,6.4-5.2,11.5-11.5,11.5c-6.4,0-11.5-5.2-11.5-11.5c0-6.4,5.2-11.5,11.5-11.5 C83.5,242.9,88.6,248.1,88.6,254.5 M54.1,254.5L54.1,254.5c0,12.7,10.3,23,23,23c12.7,0,23-10.3,23-23c0-12.7-10.3-23-23-23 C64.4,231.4,54.1,241.7,54.1,254.5" class="st24"/></g></g></g><g><g><path d="M79.4,101.9c4,0.9,5,3.3,5,5.5c0,3.5-2.6,6-7.8,6c-5.5,0-7.9-2.8-7.9-4.8c0-1.1,0.8-1.8,1.8-1.8 c2.3,0,1.7,3.5,6.1,3.5c2.2,0,3.5-1.2,3.5-2.5c0-0.8-0.4-1.6-1.8-2l-4.9-1.2c-3.9-1-4.6-3.2-4.6-5.2c0-4.3,3.9-5.8,7.6-5.8 c3.4,0,7.4,1.9,7.4,4.5c0,1.1-0.9,1.7-2,1.7c-2,0-1.6-2.8-5.7-2.8c-2,0-3.1,0.9-3.1,2.3c0,1.3,1.6,1.8,3,2.1L79.4,101.9z" class="st26"/><path d="M94.2,105.3c-1,0-1.9-0.9-1.9-1.9c0-1,0.8-1.9,1.9-1.9c1,0,1.9,0.9,1.9,1.9 C96.1,104.5,95.3,105.3,94.2,105.3 M94.2,99.6c-2.1,0-3.8,1.7-3.8,3.8c0,2.1,1.7,3.8,3.8,3.8c2.1,0,3.8-1.7,3.8-3.8 C98,101.3,96.3,99.6,94.2,99.6" class="st11"/><path d="M90.4,92.1c-0.7,0.7-1.9,0.7-2.7,0c-0.7-0.7-0.7-1.9,0-2.7c0.7-0.7,1.9-0.7,2.7,0 C91.1,90.2,91.1,91.4,90.4,92.1 M91.7,88.1c-1.5-1.5-3.9-1.5-5.3,0c-1.5,1.5-1.5,3.9,0,5.4c1.5,1.5,3.9,1.5,5.3,0 C93.2,92,93.2,89.6,91.7,88.1" class="st27"/><path d="M76.5,87.5c-1,0-1.9-0.9-1.9-1.9c0-1.1,0.8-1.9,1.9-1.9c1,0,1.9,0.9,1.9,1.9C78.4,86.6,77.6,87.5,76.5,87.5 M76.5,81.8c-2.1,0-3.8,1.7-3.8,3.8c0,2.1,1.7,3.8,3.8,3.8c2.1,0,3.8-1.7,3.8-3.8C80.3,83.5,78.6,81.8,76.5,81.8" class="st28"/><path d="M65.4,92.1c-0.7,0.7-1.9,0.7-2.7,0c-0.7-0.7-0.7-1.9,0-2.7c0.7-0.7,1.9-0.7,2.7,0 C66.1,90.2,66.1,91.4,65.4,92.1 M66.7,88.1c-1.5-1.5-3.9-1.5-5.3,0c-1.5,1.5-1.5,3.9,0,5.4c1.5,1.5,3.9,1.5,5.3,0 C68.2,92,68.2,89.6,66.7,88.1" class="st29"/><path d="M58.8,105.3c-1,0-1.9-0.9-1.9-1.9c0-1,0.8-1.9,1.9-1.9c1,0,1.9,0.9,1.9,1.9 C60.7,104.5,59.9,105.3,58.8,105.3 M58.8,99.6c-2.1,0-3.8,1.7-3.8,3.8c0,2.1,1.7,3.8,3.8,3.8c2.1,0,3.8-1.7,3.8-3.8 C62.6,101.3,60.9,99.6,58.8,99.6" class="st17"/><path d="M65.4,117.4c-0.7,0.7-1.9,0.7-2.7,0c-0.7-0.7-0.7-1.9,0-2.7c0.7-0.7,1.9-0.7,2.7,0 C66.1,115.4,66.1,116.6,65.4,117.4 M66.7,113.3c-1.5-1.5-3.9-1.5-5.3,0c-1.5,1.5-1.5,3.9,0,5.4c1.5,1.5,3.9,1.5,5.3,0 C68.2,117.2,68.2,114.8,66.7,113.3" class="st30"/><path d="M90.4,117.4c-0.7,0.7-1.9,0.7-2.7,0c-0.7-0.7-0.7-1.9,0-2.7c0.7-0.7,1.9-0.7,2.7,0 C91.1,115.4,91.1,116.6,90.4,117.4 M91.7,113.3c-1.5-1.5-3.9-1.5-5.3,0c-1.5,1.5-1.5,3.9,0,5.4c1.5,1.5,3.9,1.5,5.3,0 C93.2,117.2,93.2,114.8,91.7,113.3" class="st31"/><path d="M94.6,95.8c0.4,1-0.1,2.1-1,2.5c-1,0.4-2.1-0.1-2.5-1c-0.4-1,0.1-2.1,1-2.5C93.1,94.4,94.2,94.9,94.6,95.8" class="st32"/><path d="M84,85.2c1,0.4,1.4,1.5,1,2.5c-0.4,1-1.5,1.4-2.5,1c-1-0.4-1.4-1.5-1-2.5C81.9,85.2,83,84.8,84,85.2" class="st33"/><path d="M69,85.2c1-0.4,2.1,0.1,2.5,1c0.4,1-0.1,2.1-1,2.5c-1,0.4-2.1-0.1-2.5-1C67.6,86.7,68,85.6,69,85.2" class="st34"/><path d="M58.4,95.9c0.4-1,1.5-1.4,2.5-1c1,0.4,1.4,1.5,1,2.5c-0.4,1-1.5,1.4-2.5,1C58.5,98,58,96.9,58.4,95.9" class="st35"/><path d="M58.5,111c-0.4-1,0.1-2.1,1-2.5c1-0.4,2.1,0.1,2.5,1c0.4,1,0,2.1-1,2.5C60,112.5,58.9,112,58.5,111" class="st20"/><path d="M69.1,121.7c-1-0.4-1.4-1.5-1-2.5c0.4-1,1.5-1.4,2.5-1c1,0.4,1.4,1.5,1,2.5 C71.2,121.6,70.1,122.1,69.1,121.7" class="st21"/><path d="M84.1,121.6c-1,0.4-2.1,0-2.5-1c-0.4-1,0-2.1,1-2.5c1-0.4,2.1,0,2.5,1C85.5,120.1,85.1,121.2,84.1,121.6" class="st22"/><path d="M94.7,110.8c-0.4,1-1.5,1.4-2.5,1c-1-0.4-1.4-1.5-1-2.5c0.4-1,1.5-1.4,2.5-1 C94.6,108.8,95.1,109.9,94.7,110.8" class="st23"/><path d="M76.5,123.1L76.5,123.1c-1,0-1.9-0.9-1.9-1.9c0-1.1,0.8-1.9,1.9-1.9c1,0,1.9,0.9,1.9,1.9 C78.4,122.3,77.6,123.1,76.5,123.1 M76.5,117.4L76.5,117.4c-2.1,0-3.8,1.7-3.8,3.8c0,2.1,1.7,3.8,3.8,3.8c2.1,0,3.8-1.7,3.8-3.8 C80.3,119.1,78.6,117.4,76.5,117.4" class="st36"/></g><g><path d="M36,132.4c2,0.5,2.5,1.7,2.5,2.8c0,1.8-1.3,3.1-4,3.1c-2.8,0-4.1-1.4-4.1-2.5c0-0.5,0.4-0.9,0.9-0.9 c1.2,0,0.9,1.8,3.1,1.8c1.1,0,1.8-0.6,1.8-1.3c0-0.4-0.2-0.8-0.9-1l-2.5-0.6c-2-0.5-2.4-1.6-2.4-2.7c0-2.2,2-3,3.9-3 c1.7,0,3.8,1,3.8,2.3c0,0.6-0.5,0.9-1,0.9c-1,0-0.8-1.5-2.9-1.5c-1,0-1.6,0.5-1.6,1.2c0,0.7,0.8,0.9,1.5,1.1L36,132.4z" class="st26"/><path d="M44.4,134.7c-0.2,0.2-0.6,0.3-0.8,0.3l-0.7,0.1c-0.8,0.1-1.3,0.4-1.3,1c0,0.4,0.4,0.8,1.1,0.8 c1.1,0,1.7-0.7,1.7-1.4V134.7z M46.4,136.1c0,0.8,0.2,1,0.2,1.3c0,0.4-0.4,0.8-0.9,0.8c-0.8,0-1.1-0.5-1.2-1.2 c-0.8,0.9-1.7,1.2-2.7,1.2c-1.1,0-2.2-0.8-2.2-2c0-1.6,1.2-2.1,2.7-2.3l1.2-0.1c0.5-0.1,0.8-0.2,0.8-0.7s-0.6-0.8-1.2-0.8 c-1.5,0-1.5,1.1-2.3,1.1c-0.5,0-0.8-0.4-0.8-0.8c0-0.8,1.1-1.8,3.1-1.8c1.9,0,3.2,0.6,3.2,2V136.1z" class="st26"/><path d="M47.7,131.7c0-0.6,0.4-0.9,0.9-0.9c0.5,0,0.9,0.3,0.9,0.9v0.8h0c0.2-0.8,0.7-1.7,1.6-1.7 c0.6,0,1.1,0.4,1.1,1c0,0.7-0.5,1-1,1h-0.3c-0.8,0-1.2,0.6-1.2,2.2v2.3c0,0.5-0.2,1-1,1c-0.8,0-1-0.5-1-1V131.7z" class="st26"/><path d="M56.6,136.1L56.6,136.1l1.2-4.5c0.1-0.5,0.4-0.9,0.9-0.9c0.8,0,1,0.7,1,0.9c0,0.2-0.1,0.4-0.1,0.6l-2.3,6.5 c-0.5,1.4-1,2.1-2.2,2.1c-0.9,0-1.2-0.4-1.2-0.9c0-0.5,0.4-0.8,0.9-0.8H55c0.3,0,0.5,0,0.7-0.6l-2-5.9c-0.2-0.5-0.2-0.7-0.2-0.9 c0-0.5,0.4-1,1-1c0.5,0,0.9,0.3,1,0.7L56.6,136.1z" class="st26"/><path d="M66.4,130.5L66.4,130.5l-1.3,3.9h2.6L66.4,130.5z M65.1,128.8c0.2-0.5,0.5-0.7,1.1-0.7h0.5 c0.5,0,0.9,0.1,1.2,0.8l2.7,7.5c0.1,0.2,0.2,0.6,0.2,0.9c0,0.5-0.5,1-1,1c-0.5,0-0.8-0.2-1-0.6l-0.6-1.6h-3.6l-0.6,1.6 c-0.1,0.4-0.5,0.6-1,0.6c-0.6,0-1-0.4-1-1c0-0.2,0.1-0.6,0.2-0.9L65.1,128.8z" class="st26"/><path d="M75.6,130.8c1.6,0,2.9,0.9,2.9,1.9c0,0.6-0.4,0.9-0.9,0.9c-0.9,0-0.6-1.2-2-1.2c-0.8,0-1.7,0.5-1.7,2.3 c0,1.2,0.6,2,1.7,2c1.4,0,1.1-1.3,2.1-1.3c0.5,0,0.8,0.4,0.8,0.8c0,0.9-1,2.1-3,2.1c-2.4,0-3.6-1.5-3.6-3.6 C71.9,132.3,73.2,130.8,75.6,130.8" class="st26"/><path d="M84.4,134.7c-0.2,0.2-0.6,0.3-0.8,0.3l-0.7,0.1c-0.8,0.1-1.3,0.4-1.3,1c0,0.4,0.4,0.8,1.1,0.8 c1.1,0,1.7-0.7,1.7-1.4V134.7z M86.3,136.1c0,0.8,0.2,1,0.2,1.3c0,0.4-0.4,0.8-0.9,0.8c-0.8,0-1.1-0.5-1.2-1.2 c-0.8,0.9-1.7,1.2-2.7,1.2c-1.1,0-2.2-0.8-2.2-2c0-1.6,1.2-2.1,2.7-2.3l1.2-0.1c0.5-0.1,0.8-0.2,0.8-0.7s-0.6-0.8-1.2-0.8 c-1.5,0-1.5,1.1-2.3,1.1c-0.5,0-0.8-0.4-0.8-0.8c0-0.8,1.1-1.8,3.1-1.8c1.9,0,3.2,0.6,3.2,2V136.1z" class="st26"/><path d="M91.2,136.7c1.1,0,1.6-1,1.6-2.2c0-1-0.4-2.2-1.6-2.2c-1.3,0-1.6,1.3-1.6,2.2 C89.6,135.7,90.2,136.6,91.2,136.7 M94.6,137.3c0,0.6-0.3,0.9-0.9,0.9c-0.6,0-0.9-0.3-0.9-0.9V137h0c-0.3,0.8-1.1,1.2-2.1,1.2 c-1.6,0-3.1-1.2-3.1-3.8c0-1.9,1-3.7,3-3.7c0.9,0,1.5,0.4,1.9,1h0v-2.7c0-0.7,0.4-1,1-1c0.6,0,1,0.3,1,1V137.3z" class="st26"/><path d="M101.2,133.7c-0.1-0.9-0.8-1.6-1.7-1.6c-1,0-1.6,0.6-1.8,1.6H101.2z M97.7,134.8c0,1,0.7,1.8,1.8,1.8 c1.5,0,1.5-1,2.3-1c0.5,0,0.8,0.4,0.8,0.8c0,1.2-1.9,1.8-3.1,1.8c-2.7,0-3.8-1.9-3.8-3.6c0-2.3,1.4-3.9,3.7-3.9 c2.3,0,3.6,1.6,3.6,3.2c0,0.7-0.2,0.9-0.9,0.9H97.7z" class="st26"/><path d="M104.2,131.7c0-0.6,0.4-1,0.9-1c0.6,0,0.9,0.4,0.9,1v0.3h0c0.5-0.8,1.4-1.2,2.4-1.2c0.7,0,1.5,0.3,1.9,1.2 c0.6-0.8,1.3-1.2,2.3-1.2c1.4,0,2.5,0.6,2.5,2.4v4.1c0,0.5-0.2,1-1,1c-0.8,0-1-0.5-1-1v-3.6c0-0.7-0.3-1.3-1.1-1.3 c-0.8,0-1.4,0.6-1.4,1.5v3.3c0,0.5-0.2,1-1,1c-0.8,0-1-0.5-1-1v-3.6c0-0.7-0.3-1.3-1.1-1.3c-0.8,0-1.4,0.6-1.4,1.5v3.3 c0,0.5-0.2,1-1,1c-0.8,0-1-0.5-1-1V131.7z" class="st26"/><path d="M119.4,136.1L119.4,136.1l1.2-4.5c0.1-0.5,0.4-0.9,0.9-0.9c0.8,0,1,0.7,1,0.9c0,0.2-0.1,0.4-0.1,0.6 l-2.3,6.5c-0.5,1.4-1,2.1-2.2,2.1c-0.9,0-1.2-0.4-1.2-0.9c0-0.5,0.4-0.8,0.9-0.8h0.2c0.3,0,0.5,0,0.7-0.6l-2-5.9 c-0.2-0.5-0.2-0.7-0.2-0.9c0-0.5,0.4-1,1-1c0.5,0,0.9,0.3,1,0.7L119.4,136.1z" class="st26"/><polygon points="36.6 145.1 33 145.1 33 146.5 36.3 146.5 36.3 147.7 33 147.7 33 149.4 36.7 149.4 36.7 150.7 31.6 150.7 31.6 143.8 36.6 143.8" class="st28"/><path d="M40.9,149.3c0.2-0.3,0.3-0.6,0.3-1.1c0-0.6-0.2-1.1-0.5-1.3c-0.2-0.2-0.4-0.2-0.7-0.2 c-0.4,0-0.7,0.1-0.8,0.4c-0.2,0.3-0.3,0.7-0.3,1.1c0,0.5,0.1,0.8,0.3,1.1c0.2,0.3,0.5,0.4,0.8,0.4 C40.4,149.7,40.7,149.6,40.9,149.3 M40.6,145.7c0.2,0.1,0.4,0.3,0.6,0.6v-2.4h1.3v6.8h-1.3V150c-0.2,0.3-0.4,0.5-0.6,0.7 c-0.2,0.1-0.5,0.2-0.9,0.2c-0.6,0-1.1-0.2-1.5-0.7c-0.4-0.5-0.6-1.1-0.6-1.8c0-0.9,0.2-1.5,0.6-2c0.4-0.5,0.9-0.7,1.6-0.7 C40.1,145.5,40.4,145.6,40.6,145.7" class="st28"/><path d="M45.2,145.6v3c0,0.3,0,0.5,0.1,0.6c0.1,0.3,0.4,0.4,0.7,0.4c0.4,0,0.7-0.2,0.9-0.5c0.1-0.2,0.1-0.5,0.1-0.8 v-2.7h1.3v5h-1.3V150c0,0,0,0.1-0.1,0.1c0,0.1-0.1,0.1-0.2,0.2c-0.2,0.2-0.4,0.3-0.6,0.4c-0.2,0.1-0.4,0.1-0.7,0.1 c-0.7,0-1.2-0.3-1.5-0.8c-0.1-0.3-0.2-0.7-0.2-1.3v-3H45.2z" class="st28"/><path d="M49.4,146.6v-0.9h0.7v-1.4h1.3v1.4h0.8v0.9h-0.8v2.7c0,0.2,0,0.3,0.1,0.4c0.1,0.1,0.2,0.1,0.5,0.1 c0,0,0.1,0,0.1,0c0,0,0.1,0,0.1,0v1l-0.6,0c-0.6,0-1-0.1-1.3-0.3c-0.1-0.2-0.2-0.4-0.2-0.7v-3.1H49.4z" class="st28"/><path d="M56,148.2c-0.1,0.1-0.2,0.1-0.3,0.1c-0.1,0-0.2,0.1-0.4,0.1l-0.3,0.1c-0.3,0-0.5,0.1-0.6,0.2 c-0.2,0.1-0.3,0.3-0.3,0.6c0,0.2,0.1,0.4,0.2,0.5c0.1,0.1,0.3,0.1,0.5,0.1c0.3,0,0.5-0.1,0.8-0.2c0.2-0.2,0.4-0.5,0.4-0.9V148.2z M55.2,147.6c0.2,0,0.4-0.1,0.5-0.1c0.2-0.1,0.3-0.2,0.3-0.4c0-0.2-0.1-0.3-0.2-0.4c-0.1-0.1-0.4-0.1-0.6-0.1 c-0.3,0-0.5,0.1-0.7,0.2c-0.1,0.1-0.2,0.3-0.2,0.5H53c0-0.4,0.2-0.8,0.4-1.1c0.3-0.4,0.9-0.7,1.8-0.7c0.5,0,1,0.1,1.5,0.3 c0.4,0.2,0.6,0.6,0.6,1.2v2.3c0,0.2,0,0.4,0,0.6c0,0.2,0,0.3,0.1,0.4c0,0.1,0.1,0.1,0.2,0.2v0.2h-1.4c0-0.1-0.1-0.2-0.1-0.3 c0-0.1,0-0.2,0-0.3c-0.2,0.2-0.4,0.4-0.6,0.5c-0.3,0.2-0.6,0.2-1,0.2c-0.5,0-0.8-0.1-1.1-0.4c-0.3-0.3-0.4-0.6-0.4-1.1 c0-0.6,0.2-1.1,0.7-1.3c0.3-0.1,0.6-0.3,1.2-0.3L55.2,147.6z" class="st28"/><path d="M58.7,145.6H60v5h-1.3V145.6z M60,145h-1.3v-1.2H60V145z" class="st28"/><path d="M65.5,145.9c0.3,0.3,0.5,0.7,0.5,1.4v3.4h-1.3v-3.1c0-0.3,0-0.5-0.1-0.6c-0.1-0.3-0.4-0.4-0.7-0.4 c-0.4,0-0.7,0.2-0.9,0.6c-0.1,0.2-0.1,0.5-0.1,0.8v2.7h-1.3v-5h1.3v0.7c0.2-0.3,0.3-0.4,0.5-0.6c0.3-0.2,0.6-0.3,1-0.3 C64.8,145.5,65.2,145.6,65.5,145.9" class="st28"/><path d="M73.7,145.6c0.2,0.1,0.4,0.2,0.6,0.5c0.1,0.2,0.2,0.4,0.3,0.6c0,0.2,0,0.4,0,0.7l0,3.2h-1.3v-3.2 c0-0.2,0-0.3-0.1-0.5c-0.1-0.2-0.3-0.4-0.6-0.4c-0.4,0-0.6,0.2-0.7,0.5c-0.1,0.2-0.1,0.4-0.1,0.6v3h-1.3v-3c0-0.3,0-0.5-0.1-0.7 c-0.1-0.2-0.3-0.4-0.6-0.4c-0.4,0-0.6,0.1-0.8,0.4c-0.1,0.1-0.1,0.3-0.1,0.6v3h-1.3v-5h1.3v0.7c0.2-0.3,0.3-0.4,0.5-0.6 c0.3-0.2,0.6-0.3,1-0.3c0.4,0,0.7,0.1,0.9,0.3c0.2,0.2,0.3,0.4,0.4,0.6c0.2-0.3,0.4-0.5,0.6-0.7c0.3-0.1,0.6-0.2,0.9-0.2 C73.3,145.5,73.5,145.6,73.7,145.6" class="st28"/><path d="M77.3,146.9c-0.2,0.2-0.3,0.5-0.3,0.8h2.3c0-0.4-0.1-0.6-0.3-0.8c-0.2-0.2-0.5-0.3-0.8-0.3 C77.8,146.6,77.5,146.7,77.3,146.9 M79.3,145.7c0.3,0.2,0.6,0.4,0.9,0.7c0.2,0.3,0.3,0.6,0.4,1c0,0.2,0,0.6,0,1H77 c0,0.5,0.2,0.9,0.5,1.1c0.2,0.1,0.4,0.2,0.7,0.2c0.3,0,0.5-0.1,0.7-0.2c0.1-0.1,0.2-0.2,0.3-0.3h1.3c0,0.3-0.2,0.6-0.5,0.9 c-0.4,0.5-1.1,0.7-1.9,0.7c-0.7,0-1.3-0.2-1.8-0.6c-0.5-0.4-0.8-1.1-0.8-2c0-0.9,0.2-1.5,0.7-2c0.5-0.5,1.1-0.7,1.8-0.7 C78.6,145.5,79,145.6,79.3,145.7" class="st28"/><path d="M85.5,145.9c0.3,0.3,0.5,0.7,0.5,1.4v3.4h-1.3v-3.1c0-0.3,0-0.5-0.1-0.6c-0.1-0.3-0.4-0.4-0.7-0.4 c-0.4,0-0.7,0.2-0.9,0.6c-0.1,0.2-0.1,0.5-0.1,0.8v2.7h-1.3v-5h1.3v0.7c0.2-0.3,0.3-0.4,0.5-0.6c0.3-0.2,0.6-0.3,1-0.3 C84.8,145.5,85.2,145.6,85.5,145.9" class="st28"/><path d="M86.9,146.6v-0.9h0.7v-1.4h1.3v1.4h0.8v0.9h-0.8v2.7c0,0.2,0,0.3,0.1,0.4c0.1,0.1,0.2,0.1,0.5,0.1 c0,0,0.1,0,0.1,0c0,0,0.1,0,0.1,0v1l-0.6,0c-0.6,0-1-0.1-1.3-0.3c-0.1-0.2-0.2-0.4-0.2-0.7v-3.1H86.9z" class="st28"/><path d="M97.2,145.3c-0.2-0.2-0.4-0.2-0.8-0.2h-1.3v2h1.3c0.3,0,0.6-0.1,0.8-0.2c0.2-0.2,0.3-0.4,0.3-0.8 C97.5,145.7,97.4,145.4,97.2,145.3 M98.3,147.7c-0.4,0.3-1,0.5-1.7,0.5h-1.4v2.5h-1.4v-6.8h2.9c0.7,0,1.2,0.2,1.6,0.5 c0.4,0.4,0.6,0.9,0.6,1.6C98.9,146.8,98.7,147.4,98.3,147.7" class="st28"/><rect width="1.3" height="6.8" x="100.2" y="143.8" class="st28"/><path d="M105.7,148.2c-0.1,0.1-0.2,0.1-0.3,0.1c-0.1,0-0.2,0.1-0.4,0.1l-0.3,0.1c-0.3,0-0.5,0.1-0.6,0.2 c-0.2,0.1-0.3,0.3-0.3,0.6c0,0.2,0.1,0.4,0.2,0.5c0.1,0.1,0.3,0.1,0.5,0.1c0.3,0,0.5-0.1,0.8-0.2c0.2-0.2,0.4-0.5,0.4-0.9V148.2z M104.9,147.6c0.2,0,0.4-0.1,0.5-0.1c0.2-0.1,0.3-0.2,0.3-0.4c0-0.2-0.1-0.3-0.2-0.4c-0.1-0.1-0.4-0.1-0.6-0.1 c-0.3,0-0.5,0.1-0.7,0.2c-0.1,0.1-0.2,0.3-0.2,0.5h-1.3c0-0.4,0.1-0.8,0.4-1.1c0.3-0.4,0.9-0.7,1.8-0.7c0.5,0,1,0.1,1.5,0.3 c0.4,0.2,0.6,0.6,0.6,1.2v2.3c0,0.2,0,0.4,0,0.6c0,0.2,0,0.3,0.1,0.4c0,0.1,0.1,0.1,0.2,0.2v0.2h-1.4c0-0.1-0.1-0.2-0.1-0.3 c0-0.1,0-0.2,0-0.3c-0.2,0.2-0.4,0.4-0.6,0.5c-0.3,0.2-0.6,0.2-1,0.2c-0.5,0-0.8-0.1-1.1-0.4c-0.3-0.3-0.4-0.6-0.4-1.1 c0-0.6,0.2-1.1,0.7-1.3c0.3-0.1,0.6-0.3,1.2-0.3L104.9,147.6z" class="st28"/><path d="M112.4,145.9c0.3,0.3,0.5,0.7,0.5,1.4v3.4h-1.3v-3.1c0-0.3,0-0.5-0.1-0.6c-0.1-0.3-0.4-0.4-0.7-0.4 c-0.4,0-0.7,0.2-0.9,0.6c-0.1,0.2-0.1,0.5-0.1,0.8v2.7h-1.3v-5h1.3v0.7c0.2-0.3,0.3-0.4,0.5-0.6c0.3-0.2,0.6-0.3,1-0.3 C111.7,145.5,112.1,145.6,112.4,145.9" class="st28"/><path d="M115.7,146.9c-0.2,0.2-0.3,0.5-0.3,0.8h2.3c0-0.4-0.1-0.6-0.3-0.8c-0.2-0.2-0.5-0.3-0.8-0.3 C116.1,146.6,115.9,146.7,115.7,146.9 M117.6,145.7c0.3,0.2,0.6,0.4,0.9,0.7c0.2,0.3,0.3,0.6,0.4,1c0,0.2,0,0.6,0,1h-3.6 c0,0.5,0.2,0.9,0.5,1.1c0.2,0.1,0.4,0.2,0.7,0.2c0.3,0,0.5-0.1,0.7-0.2c0.1-0.1,0.2-0.2,0.3-0.3h1.3c0,0.3-0.2,0.6-0.5,0.9 c-0.4,0.5-1.1,0.7-1.9,0.7c-0.7,0-1.3-0.2-1.8-0.6c-0.5-0.4-0.8-1.1-0.8-2c0-0.9,0.2-1.5,0.7-2c0.5-0.5,1.1-0.7,1.8-0.7 C116.9,145.5,117.3,145.6,117.6,145.7" class="st28"/><path d="M119.3,146.6v-0.9h0.7v-1.4h1.3v1.4h0.8v0.9h-0.8v2.7c0,0.2,0,0.3,0.1,0.4c0.1,0.1,0.2,0.1,0.5,0.1 c0,0,0.1,0,0.1,0c0,0,0.1,0,0.1,0v1l-0.6,0c-0.6,0-1-0.1-1.3-0.3c-0.1-0.2-0.2-0.4-0.2-0.7v-3.1H119.3z" class="st28"/></g></g></svg>