<?xml version="1.0" encoding="utf-8"?>
<!-- Generator: Adobe Illustrator 24.0.0, SVG Export Plug-In . SVG Version: 6.00 Build 0)  -->
<svg version="1.1" id="Layer_1" xmlns="http://www.w3.org/2000/svg" xmlns:xlink="http://www.w3.org/1999/xlink" x="0px" y="0px"
	 viewBox="0 0 153.1 240.9" style="enable-background:new 0 0 153.1 240.9;" xml:space="preserve">
<style type="text/css">
	.st0{clip-path:url(#SVGID_2_);fill:none;stroke:#169FDB;stroke-width:1.3022;stroke-miterlimit:10;}
	.st1{clip-path:url(#SVGID_2_);fill:#211E5F;}
	.st2{clip-path:url(#SVGID_2_);fill:#F39207;}
	.st3{clip-path:url(#SVGID_2_);fill:none;stroke:#1275BB;stroke-width:0.589;stroke-miterlimit:10;}
	.st4{clip-path:url(#SVGID_4_);fill:none;stroke:#0F265C;stroke-width:1.3022;stroke-miterlimit:10;}
	.st5{clip-path:url(#SVGID_4_);fill:#211E5F;}
	.st6{clip-path:url(#SVGID_4_);fill:#169FDB;}
	.st7{clip-path:url(#SVGID_4_);fill:none;stroke:#1275BB;stroke-width:0.7638;stroke-miterlimit:10;}
	.st8{clip-path:url(#XMLID_2_);fill:#FFFFFF;}
	.st9{clip-path:url(#XMLID_2_);}
	.st10{fill:none;stroke:#3AAA35;stroke-width:0.7638;stroke-miterlimit:10;}
	.st11{fill:#3AAA35;}
	.st12{fill:none;stroke:#F2E734;stroke-width:0.5184;stroke-miterlimit:10;}
	.st13{fill:none;stroke:#F39325;stroke-width:0.7638;stroke-miterlimit:10;}
	.st14{fill:#F39325;}
	.st15{fill:none;stroke:#E30613;stroke-width:0.5184;stroke-miterlimit:10;}
	.st16{fill:none;stroke:#662483;stroke-width:0.7125;stroke-miterlimit:10;}
	.st17{fill:#662483;}
	.st18{fill:none;stroke:#005CA9;stroke-width:0.8175;stroke-miterlimit:10;}
	.st19{fill:#E94E1B;}
	.st20{fill:#4E55A2;}
	.st21{fill:#005CA9;}
	.st22{fill:#169FDB;}
	.st23{fill:#00B2BB;}
	.st24{fill:none;stroke:#1275BB;stroke-width:0.7638;stroke-miterlimit:10;}
	.st25{fill:none;stroke:#1275BB;stroke-width:0.4087;stroke-miterlimit:10;}
	.st26{fill:#0F265C;}
	.st27{fill:#F2E734;}
	.st28{fill:#F39207;}
	.st29{fill:#E30613;}
	.st30{fill:#164194;}
	.st31{fill:#009BA4;}
	.st32{fill:#95C11F;}
	.st33{fill:#F9B233;}
	.st34{fill:#E94E1D;}
	.st35{fill:#E71D73;}
	.st36{fill:#1275BB;}
	.st37{fill:none;stroke:#0F265C;stroke-miterlimit:10;}
	.st38{fill:#78719A;}
	.st39{fill:#FFFFFF;}
	.st40{opacity:0.15;}
	.st41{fill:#070D33;}
	.st42{fill:#E8E8F0;}
	.st43{fill:#B5207F;}
	.st44{fill:#F7A600;}
	.st45{opacity:0.7;}
	.st46{fill:#0082CA;}
	.st47{fill:#EC6608;}
	.st48{clip-path:url(#SVGID_6_);fill:none;stroke:#0F265C;stroke-width:1.3022;stroke-miterlimit:10;}
	.st49{clip-path:url(#SVGID_6_);fill:#169FDB;}
	.st50{clip-path:url(#SVGID_6_);fill:#F39207;}
	.st51{clip-path:url(#SVGID_6_);fill:none;stroke:#1275BB;stroke-width:0.589;stroke-miterlimit:10;}
</style>
<g>
	<defs>
		<rect id="SVGID_5_" x="-1" y="0.1" width="154.1" height="241"/>
	</defs>
	<clipPath id="SVGID_2_">
		<use xlink:href="#SVGID_5_"  style="overflow:visible;"/>
	</clipPath>
	
		<circle style="clip-path:url(#SVGID_2_);fill:none;stroke:#0F265C;stroke-width:1.3022;stroke-miterlimit:10;" cx="1.6" cy="47" r="157.6"/>
	<circle style="clip-path:url(#SVGID_2_);fill:#169FDB;" cx="0.8" cy="37.6" r="160.9"/>
	<path class="st2" d="M34,224c-0.6,1.5-2.3,2.2-3.8,1.6c-1.5-0.6-2.2-2.3-1.6-3.8c0.6-1.5,2.3-2.2,3.8-1.6
		C33.9,220.8,34.6,222.5,34,224 M26,220.7c-1.2,3,0.2,6.3,3.2,7.6c3,1.2,6.3-0.2,7.6-3.2c1.2-3-0.2-6.3-3.2-7.6
		C30.6,216.3,27.2,217.7,26,220.7"/>
	<path class="st3" d="M15.3,242.6L15.3,242.6c-1.8,4.5-7,6.7-11.6,4.9c-4.5-1.8-6.7-7-4.9-11.6c1.8-4.5,7-6.7,11.6-4.9
		C15,232.9,17.1,238.1,15.3,242.6 M-9.4,232.6L-9.4,232.6c-3.7,9.1,0.7,19.4,9.8,23.1c9.1,3.7,19.4-0.7,23.1-9.8
		c3.7-9.1-0.7-19.4-9.8-23.1C4.7,219.2-5.7,223.5-9.4,232.6"/>
</g>
<g>
	<g>
		<path class="st26" d="M109.5,193c2.6,0.6,3.2,2.1,3.2,3.6c0,2.2-1.7,3.9-5.1,3.9c-3.5,0-5.1-1.8-5.1-3.1c0-0.7,0.5-1.2,1.2-1.2
			c1.5,0,1.1,2.2,4,2.2c1.5,0,2.3-0.8,2.3-1.6c0-0.5-0.2-1-1.2-1.3l-3.2-0.8c-2.5-0.7-3-2.1-3-3.4c0-2.8,2.5-3.8,4.9-3.8
			c2.2,0,4.8,1.2,4.8,2.9c0,0.7-0.6,1.1-1.3,1.1c-1.3,0-1.1-1.8-3.7-1.8c-1.3,0-2,0.6-2,1.5c0,0.9,1,1.1,1.9,1.3L109.5,193z"/>
		<path class="st11" d="M119.1,195.2c-0.7,0-1.2-0.6-1.2-1.2c0-0.7,0.5-1.2,1.2-1.2c0.7,0,1.2,0.6,1.2,1.2
			C120.3,194.7,119.8,195.2,119.1,195.2 M119.1,191.5c-1.3,0-2.4,1.1-2.4,2.5c0,1.4,1.1,2.5,2.4,2.5s2.4-1.1,2.4-2.5
			C121.5,192.6,120.4,191.5,119.1,191.5"/>
		<path class="st27" d="M116.6,186.7c-0.5,0.5-1.3,0.5-1.7,0c-0.5-0.5-0.5-1.3,0-1.7c0.5-0.5,1.3-0.5,1.7,0
			C117.1,185.4,117.1,186.2,116.6,186.7 M117.5,184.1c-1-1-2.5-1-3.5,0c-1,1-1,2.5,0,3.5c1,1,2.5,1,3.5,0
			C118.4,186.6,118.4,185,117.5,184.1"/>
		<path class="st28" d="M107.6,183.7c-0.7,0-1.2-0.6-1.2-1.2c0-0.7,0.5-1.2,1.2-1.2c0.7,0,1.2,0.6,1.2,1.2
			C108.9,183.1,108.3,183.7,107.6,183.7 M107.6,180c-1.3,0-2.4,1.1-2.4,2.5c0,1.4,1.1,2.5,2.4,2.5s2.4-1.1,2.4-2.5
			C110.1,181.1,109,180,107.6,180"/>
		<path class="st29" d="M100.4,186.7c-0.5,0.5-1.3,0.5-1.7,0c-0.5-0.5-0.5-1.3,0-1.7c0.5-0.5,1.3-0.5,1.7,0
			C100.9,185.4,100.9,186.2,100.4,186.7 M101.3,184.1c-1-1-2.5-1-3.5,0c-1,1-1,2.5,0,3.5c1,1,2.5,1,3.5,0
			C102.2,186.6,102.2,185,101.3,184.1"/>
		<path class="st17" d="M96.2,195.2c-0.7,0-1.2-0.6-1.2-1.2c0-0.7,0.5-1.2,1.2-1.2c0.7,0,1.2,0.6,1.2,1.2
			C97.4,194.7,96.9,195.2,96.2,195.2 M96.2,191.5c-1.3,0-2.4,1.1-2.4,2.5c0,1.4,1.1,2.5,2.4,2.5s2.4-1.1,2.4-2.5
			C98.6,192.6,97.5,191.5,96.2,191.5"/>
		<path class="st30" d="M100.4,203c-0.5,0.5-1.3,0.5-1.7,0c-0.5-0.5-0.5-1.3,0-1.7c0.5-0.5,1.3-0.5,1.7,0
			C100.9,201.8,100.9,202.5,100.4,203 M101.3,200.4c-1-1-2.5-1-3.5,0c-1,1-1,2.5,0,3.5c1,1,2.5,1,3.5,0
			C102.2,202.9,102.2,201.4,101.3,200.4"/>
		<path class="st31" d="M116.6,203c-0.5,0.5-1.3,0.5-1.7,0c-0.5-0.5-0.5-1.3,0-1.7c0.5-0.5,1.3-0.5,1.7,0
			C117.1,201.8,117.1,202.5,116.6,203 M117.5,200.4c-1-1-2.5-1-3.5,0c-1,1-1,2.5,0,3.5c1,1,2.5,1,3.5,0
			C118.4,202.9,118.4,201.4,117.5,200.4"/>
		<path class="st32" d="M119.4,189.1c0.3,0.6,0,1.3-0.7,1.6c-0.6,0.3-1.3,0-1.6-0.7c-0.3-0.6,0-1.3,0.7-1.6
			C118.4,188.2,119.1,188.5,119.4,189.1"/>
		<path class="st33" d="M112.5,182.2c0.6,0.3,0.9,1,0.7,1.6c-0.3,0.6-1,0.9-1.6,0.7c-0.6-0.3-0.9-1-0.7-1.6
			C111.1,182.2,111.9,181.9,112.5,182.2"/>
		<path class="st34" d="M102.8,182.2c0.6-0.3,1.3,0,1.6,0.7c0.3,0.6,0,1.3-0.7,1.6c-0.6,0.3-1.3,0-1.6-0.7
			C101.8,183.2,102.1,182.4,102.8,182.2"/>
		<path class="st35" d="M95.9,189.1c0.3-0.6,1-0.9,1.6-0.7c0.6,0.3,0.9,1,0.7,1.6c-0.3,0.6-1,0.9-1.6,0.7
			C95.9,190.5,95.6,189.8,95.9,189.1"/>
		<path class="st20" d="M95.9,198.9c-0.3-0.6,0-1.3,0.7-1.6c0.6-0.3,1.3,0,1.6,0.7c0.3,0.6,0,1.3-0.7,1.6
			C96.9,199.8,96.2,199.5,95.9,198.9"/>
		<path class="st21" d="M102.8,205.8c-0.6-0.3-0.9-1-0.7-1.6c0.3-0.6,1-0.9,1.6-0.7c0.6,0.3,0.9,1,0.7,1.6
			C104.2,205.8,103.5,206.1,102.8,205.8"/>
		<path class="st22" d="M112.6,205.8c-0.6,0.3-1.3,0-1.6-0.7c-0.3-0.6,0-1.3,0.7-1.6c0.6-0.3,1.3,0,1.6,0.7
			C113.5,204.8,113.2,205.5,112.6,205.8"/>
		<path class="st23" d="M119.4,198.8c-0.3,0.6-1,0.9-1.6,0.7c-0.6-0.3-0.9-1-0.7-1.6c0.3-0.6,1-0.9,1.6-0.7
			C119.3,197.5,119.6,198.2,119.4,198.8"/>
		<path class="st36" d="M107.6,206.8L107.6,206.8c-0.7,0-1.2-0.6-1.2-1.2c0-0.7,0.5-1.2,1.2-1.2c0.7,0,1.2,0.6,1.2,1.2
			C108.9,206.2,108.3,206.8,107.6,206.8 M107.6,203.1L107.6,203.1c-1.3,0-2.4,1.1-2.4,2.5c0,1.4,1.1,2.5,2.4,2.5s2.4-1.1,2.4-2.5
			C110.1,204.2,109,203.1,107.6,203.1"/>
	</g>
	<g>
		<path class="st26" d="M81.4,212.7c1.3,0.3,1.6,1.1,1.6,1.8c0,1.1-0.9,2-2.6,2c-1.8,0-2.6-0.9-2.6-1.6c0-0.4,0.3-0.6,0.6-0.6
			c0.8,0,0.6,1.1,2,1.1c0.7,0,1.2-0.4,1.2-0.8c0-0.3-0.1-0.5-0.6-0.7l-1.6-0.4c-1.3-0.3-1.5-1.1-1.5-1.7c0-1.4,1.3-1.9,2.5-1.9
			c1.1,0,2.4,0.6,2.4,1.5c0,0.4-0.3,0.6-0.7,0.6c-0.7,0-0.5-0.9-1.9-0.9c-0.7,0-1,0.3-1,0.7c0,0.4,0.5,0.6,1,0.7L81.4,212.7z"/>
		<path class="st26" d="M86.8,214.2c-0.1,0.1-0.4,0.2-0.5,0.2l-0.5,0.1c-0.5,0.1-0.8,0.2-0.8,0.6c0,0.3,0.3,0.5,0.7,0.5
			c0.7,0,1.1-0.5,1.1-0.9V214.2z M88.1,215.2c0,0.5,0.1,0.7,0.1,0.9c0,0.3-0.3,0.5-0.6,0.5c-0.5,0-0.7-0.4-0.7-0.7
			c-0.5,0.6-1.1,0.7-1.7,0.7c-0.7,0-1.4-0.5-1.4-1.3c0-1.1,0.8-1.4,1.8-1.5l0.8-0.1c0.3,0,0.5-0.1,0.5-0.5c0-0.4-0.4-0.5-0.8-0.5
			c-0.9,0-1,0.7-1.5,0.7c-0.3,0-0.5-0.2-0.5-0.5c0-0.5,0.7-1.2,2-1.2c1.2,0,2.1,0.4,2.1,1.3V215.2z"/>
		<path class="st26" d="M89,212.3c0-0.4,0.3-0.6,0.6-0.6c0.3,0,0.6,0.2,0.6,0.6v0.5h0c0.1-0.5,0.4-1.1,1.1-1.1
			c0.4,0,0.7,0.3,0.7,0.6c0,0.5-0.3,0.6-0.6,0.6H91c-0.5,0-0.8,0.4-0.8,1.4v1.5c0,0.3-0.1,0.6-0.6,0.6c-0.5,0-0.6-0.3-0.6-0.6V212.3
			z"/>
		<path class="st26" d="M94.7,215.2L94.7,215.2l0.8-2.9c0.1-0.3,0.3-0.6,0.6-0.6c0.5,0,0.7,0.4,0.7,0.6c0,0.1,0,0.2-0.1,0.4
			l-1.5,4.2c-0.3,0.9-0.7,1.3-1.5,1.3c-0.6,0-0.8-0.3-0.8-0.6c0-0.3,0.2-0.5,0.6-0.5h0.1c0.2,0,0.3,0,0.4-0.4l-1.3-3.8
			c-0.1-0.3-0.2-0.4-0.2-0.6c0-0.4,0.3-0.6,0.6-0.6c0.3,0,0.6,0.2,0.7,0.5L94.7,215.2z"/>
		<path class="st26" d="M101.1,211.5L101.1,211.5l-0.9,2.5h1.7L101.1,211.5z M100.2,210.4c0.1-0.3,0.3-0.4,0.7-0.4h0.3
			c0.3,0,0.6,0.1,0.8,0.5l1.7,4.8c0.1,0.1,0.1,0.4,0.1,0.6c0,0.4-0.3,0.6-0.7,0.6c-0.3,0-0.5-0.1-0.6-0.4l-0.4-1.1h-2.3l-0.4,1.1
			c-0.1,0.3-0.3,0.4-0.6,0.4c-0.4,0-0.7-0.2-0.7-0.6c0-0.2,0.1-0.4,0.1-0.6L100.2,210.4z"/>
		<path class="st26" d="M107,211.7c1.1,0,1.9,0.6,1.9,1.2c0,0.4-0.3,0.6-0.6,0.6c-0.6,0-0.4-0.8-1.3-0.8c-0.5,0-1.1,0.3-1.1,1.5
			c0,0.8,0.4,1.3,1.1,1.3c0.9,0,0.7-0.8,1.4-0.8c0.3,0,0.5,0.2,0.5,0.5c0,0.6-0.6,1.3-1.9,1.3c-1.6,0-2.3-1-2.3-2.3
			C104.6,212.7,105.5,211.7,107,211.7"/>
		<path class="st26" d="M112.7,214.2c-0.1,0.1-0.4,0.2-0.5,0.2l-0.5,0.1c-0.5,0.1-0.8,0.2-0.8,0.6c0,0.3,0.3,0.5,0.7,0.5
			c0.7,0,1.1-0.5,1.1-0.9V214.2z M114,215.2c0,0.5,0.1,0.7,0.1,0.9c0,0.3-0.3,0.5-0.6,0.5c-0.5,0-0.7-0.4-0.7-0.7
			c-0.5,0.6-1.1,0.7-1.7,0.7c-0.7,0-1.4-0.5-1.4-1.3c0-1.1,0.8-1.4,1.8-1.5l0.8-0.1c0.3,0,0.5-0.1,0.5-0.5c0-0.4-0.4-0.5-0.8-0.5
			c-0.9,0-1,0.7-1.5,0.7c-0.3,0-0.5-0.2-0.5-0.5c0-0.5,0.7-1.2,2-1.2c1.2,0,2.1,0.4,2.1,1.3V215.2z"/>
		<path class="st26" d="M117.1,215.5c0.7,0,1-0.7,1-1.4c0-0.7-0.2-1.4-1-1.4c-0.8,0-1,0.8-1,1.4
			C116.1,214.9,116.5,215.5,117.1,215.5 M119.4,215.9c0,0.4-0.2,0.6-0.6,0.6c-0.4,0-0.6-0.2-0.6-0.6v-0.2h0
			c-0.2,0.5-0.7,0.8-1.3,0.8c-1.1,0-2-0.8-2-2.4c0-1.2,0.6-2.4,2-2.4c0.6,0,1,0.2,1.3,0.6h0v-1.7c0-0.4,0.3-0.6,0.6-0.6
			c0.4,0,0.6,0.2,0.6,0.6V215.9z"/>
		<path class="st26" d="M123.6,213.6c-0.1-0.6-0.5-1-1.1-1c-0.6,0-1,0.4-1.2,1H123.6z M121.4,214.3c0,0.7,0.4,1.2,1.2,1.2
			c1,0,1-0.6,1.5-0.6c0.3,0,0.5,0.3,0.5,0.5c0,0.8-1.2,1.1-2,1.1c-1.8,0-2.4-1.2-2.4-2.3c0-1.5,0.9-2.5,2.4-2.5c1.5,0,2.3,1,2.3,2.1
			c0,0.4-0.1,0.6-0.6,0.6H121.4z"/>
		<path class="st26" d="M125.5,212.3c0-0.4,0.2-0.6,0.6-0.6c0.4,0,0.6,0.3,0.6,0.6v0.2h0c0.3-0.5,0.9-0.8,1.5-0.8
			c0.4,0,1,0.2,1.2,0.8c0.4-0.5,0.8-0.8,1.5-0.8c0.9,0,1.6,0.4,1.6,1.6v2.6c0,0.3-0.1,0.6-0.6,0.6c-0.5,0-0.6-0.3-0.6-0.6v-2.3
			c0-0.5-0.2-0.8-0.7-0.8c-0.5,0-0.9,0.4-0.9,1v2.1c0,0.3-0.1,0.6-0.6,0.6c-0.5,0-0.6-0.3-0.6-0.6v-2.3c0-0.5-0.2-0.8-0.7-0.8
			c-0.5,0-0.9,0.4-0.9,1v2.1c0,0.3-0.1,0.6-0.6,0.6c-0.5,0-0.6-0.3-0.6-0.6V212.3z"/>
		<path class="st26" d="M135.4,215.2L135.4,215.2l0.8-2.9c0.1-0.3,0.3-0.6,0.6-0.6c0.5,0,0.7,0.4,0.7,0.6c0,0.1,0,0.2-0.1,0.4
			l-1.5,4.2c-0.3,0.9-0.7,1.3-1.5,1.3c-0.6,0-0.8-0.3-0.8-0.6c0-0.3,0.2-0.5,0.6-0.5h0.1c0.2,0,0.3,0,0.4-0.4l-1.3-3.8
			c-0.1-0.3-0.2-0.4-0.2-0.6c0-0.4,0.3-0.6,0.6-0.6c0.3,0,0.6,0.2,0.7,0.5L135.4,215.2z"/>
		<polygon class="st28" points="81.8,221 79.4,221 79.4,221.9 81.6,221.9 81.6,222.7 79.4,222.7 79.4,223.8 81.9,223.8 81.9,224.6 
			78.5,224.6 78.5,220.2 81.8,220.2 		"/>
		<path class="st28" d="M84.6,223.7c0.1-0.2,0.2-0.4,0.2-0.7c0-0.4-0.1-0.7-0.3-0.9c-0.1-0.1-0.3-0.2-0.4-0.2
			c-0.2,0-0.4,0.1-0.5,0.3c-0.1,0.2-0.2,0.4-0.2,0.7c0,0.3,0.1,0.5,0.2,0.7c0.1,0.2,0.3,0.3,0.5,0.3C84.3,224,84.5,223.9,84.6,223.7
			 M84.4,221.4c0.2,0.1,0.3,0.2,0.4,0.4v-1.6h0.9v4.4h-0.8v-0.5c-0.1,0.2-0.3,0.3-0.4,0.4c-0.2,0.1-0.3,0.1-0.6,0.1
			c-0.4,0-0.7-0.2-1-0.5c-0.3-0.3-0.4-0.7-0.4-1.2c0-0.6,0.1-1,0.4-1.3c0.3-0.3,0.6-0.5,1-0.5C84,221.2,84.2,221.3,84.4,221.4"/>
		<path class="st28" d="M87.4,221.3v2c0,0.2,0,0.3,0.1,0.4c0.1,0.2,0.2,0.2,0.5,0.2c0.3,0,0.5-0.1,0.6-0.4c0.1-0.1,0.1-0.3,0.1-0.5
			v-1.8h0.9v3.3h-0.8v-0.5c0,0,0,0-0.1,0.1c0,0.1-0.1,0.1-0.1,0.1c-0.1,0.1-0.3,0.2-0.4,0.2c-0.1,0-0.3,0.1-0.4,0.1
			c-0.5,0-0.8-0.2-1-0.5c-0.1-0.2-0.1-0.5-0.1-0.8v-2H87.4z"/>
		<path class="st28" d="M90,222v-0.6h0.5v-0.9h0.8v0.9h0.5v0.6h-0.5v1.7c0,0.1,0,0.2,0.1,0.3c0,0,0.1,0,0.3,0c0,0,0.1,0,0.1,0
			c0,0,0.1,0,0.1,0v0.6l-0.4,0c-0.4,0-0.7-0.1-0.8-0.2c-0.1-0.1-0.1-0.2-0.1-0.5v-2H90z"/>
		<path class="st28" d="M94.3,223c-0.1,0-0.1,0.1-0.2,0.1c-0.1,0-0.1,0-0.2,0.1l-0.2,0c-0.2,0-0.3,0.1-0.4,0.1
			c-0.1,0.1-0.2,0.2-0.2,0.4c0,0.1,0,0.3,0.1,0.3c0.1,0.1,0.2,0.1,0.3,0.1c0.2,0,0.4-0.1,0.5-0.2c0.2-0.1,0.2-0.3,0.2-0.6V223z
			 M93.8,222.6c0.2,0,0.3,0,0.3-0.1c0.1-0.1,0.2-0.1,0.2-0.2c0-0.1,0-0.2-0.1-0.3c-0.1-0.1-0.2-0.1-0.4-0.1c-0.2,0-0.3,0-0.4,0.1
			c-0.1,0.1-0.1,0.2-0.1,0.3h-0.8c0-0.3,0.1-0.5,0.2-0.7c0.2-0.3,0.6-0.4,1.2-0.4c0.4,0,0.7,0.1,0.9,0.2c0.3,0.1,0.4,0.4,0.4,0.8
			v1.5c0,0.1,0,0.2,0,0.4c0,0.1,0,0.2,0.1,0.2c0,0,0.1,0.1,0.1,0.1v0.1h-0.9c0-0.1,0-0.1-0.1-0.2c0-0.1,0-0.1,0-0.2
			c-0.1,0.1-0.3,0.2-0.4,0.3c-0.2,0.1-0.4,0.2-0.6,0.2c-0.3,0-0.5-0.1-0.7-0.3c-0.2-0.2-0.3-0.4-0.3-0.7c0-0.4,0.2-0.7,0.5-0.9
			c0.2-0.1,0.4-0.2,0.7-0.2L93.8,222.6z"/>
		<path class="st28" d="M96.1,221.3h0.9v3.3h-0.9V221.3z M96.9,220.9h-0.9v-0.8h0.9V220.9z"/>
		<path class="st28" d="M100.5,221.5c0.2,0.2,0.3,0.5,0.3,0.9v2.2H100v-2c0-0.2,0-0.3-0.1-0.4c-0.1-0.2-0.2-0.3-0.5-0.3
			c-0.3,0-0.5,0.1-0.6,0.4c-0.1,0.1-0.1,0.3-0.1,0.5v1.8h-0.8v-3.3h0.8v0.5c0.1-0.2,0.2-0.3,0.3-0.4c0.2-0.1,0.4-0.2,0.7-0.2
			C100,221.2,100.3,221.3,100.5,221.5"/>
		<path class="st28" d="M105.8,221.3c0.1,0.1,0.3,0.2,0.4,0.3c0.1,0.1,0.2,0.3,0.2,0.4c0,0.1,0,0.3,0,0.5l0,2.1h-0.9v-2.1
			c0-0.1,0-0.2-0.1-0.3c-0.1-0.2-0.2-0.2-0.4-0.2c-0.2,0-0.4,0.1-0.5,0.3c0,0.1-0.1,0.2-0.1,0.4v1.9h-0.9v-1.9c0-0.2,0-0.3-0.1-0.4
			c-0.1-0.2-0.2-0.2-0.4-0.2c-0.2,0-0.4,0.1-0.5,0.2c0,0.1-0.1,0.2-0.1,0.4v2h-0.9v-3.3h0.8v0.5c0.1-0.2,0.2-0.3,0.3-0.4
			c0.2-0.1,0.4-0.2,0.6-0.2c0.2,0,0.4,0.1,0.6,0.2c0.1,0.1,0.2,0.2,0.3,0.4c0.1-0.2,0.2-0.3,0.4-0.4c0.2-0.1,0.4-0.1,0.6-0.1
			C105.5,221.2,105.7,221.3,105.8,221.3"/>
		<path class="st28" d="M108.2,222.1c-0.1,0.1-0.2,0.3-0.2,0.5h1.5c0-0.2-0.1-0.4-0.2-0.5c-0.1-0.1-0.3-0.2-0.5-0.2
			C108.5,221.9,108.3,222,108.2,222.1 M109.4,221.4c0.2,0.1,0.4,0.3,0.6,0.5c0.1,0.2,0.2,0.4,0.3,0.7c0,0.1,0,0.4,0,0.6h-2.4
			c0,0.3,0.1,0.6,0.3,0.7c0.1,0.1,0.3,0.1,0.5,0.1c0.2,0,0.3-0.1,0.5-0.1c0.1-0.1,0.1-0.1,0.2-0.2h0.9c0,0.2-0.1,0.4-0.3,0.6
			c-0.3,0.3-0.7,0.5-1.2,0.5c-0.4,0-0.8-0.1-1.1-0.4c-0.3-0.3-0.5-0.7-0.5-1.3c0-0.6,0.1-1,0.4-1.3c0.3-0.3,0.7-0.5,1.2-0.5
			C109,221.2,109.2,221.3,109.4,221.4"/>
		<path class="st28" d="M113.5,221.5c0.2,0.2,0.3,0.5,0.3,0.9v2.2h-0.9v-2c0-0.2,0-0.3-0.1-0.4c-0.1-0.2-0.2-0.3-0.5-0.3
			c-0.3,0-0.5,0.1-0.6,0.4c-0.1,0.1-0.1,0.3-0.1,0.5v1.8h-0.8v-3.3h0.8v0.5c0.1-0.2,0.2-0.3,0.3-0.4c0.2-0.1,0.4-0.2,0.7-0.2
			C113,221.2,113.2,221.3,113.5,221.5"/>
		<path class="st28" d="M114.4,222v-0.6h0.5v-0.9h0.8v0.9h0.5v0.6h-0.5v1.7c0,0.1,0,0.2,0.1,0.3c0,0,0.1,0,0.3,0c0,0,0.1,0,0.1,0
			c0,0,0.1,0,0.1,0v0.6l-0.4,0c-0.4,0-0.7-0.1-0.8-0.2c-0.1-0.1-0.1-0.2-0.1-0.5v-2H114.4z"/>
		<path class="st28" d="M121,221.1c-0.1-0.1-0.3-0.1-0.5-0.1h-0.8v1.3h0.8c0.2,0,0.4-0.1,0.5-0.2c0.1-0.1,0.2-0.3,0.2-0.5
			C121.2,221.3,121.1,221.2,121,221.1 M121.7,222.7c-0.3,0.2-0.6,0.3-1.1,0.3h-0.9v1.6h-0.9v-4.4h1.9c0.4,0,0.8,0.1,1,0.3
			c0.3,0.2,0.4,0.6,0.4,1.1C122.1,222.1,122,222.5,121.7,222.7"/>
		<rect x="122.9" y="220.2" class="st28" width="0.8" height="4.4"/>
		<path class="st28" d="M126.5,223c-0.1,0-0.1,0.1-0.2,0.1c-0.1,0-0.1,0-0.2,0.1l-0.2,0c-0.2,0-0.3,0.1-0.4,0.1
			c-0.1,0.1-0.2,0.2-0.2,0.4c0,0.1,0,0.3,0.1,0.3c0.1,0.1,0.2,0.1,0.3,0.1c0.2,0,0.4-0.1,0.5-0.2c0.2-0.1,0.2-0.3,0.2-0.6V223z
			 M126,222.6c0.2,0,0.3,0,0.3-0.1c0.1-0.1,0.2-0.1,0.2-0.2c0-0.1,0-0.2-0.1-0.3c-0.1-0.1-0.2-0.1-0.4-0.1c-0.2,0-0.3,0-0.4,0.1
			c-0.1,0.1-0.1,0.2-0.1,0.3h-0.8c0-0.3,0.1-0.5,0.2-0.7c0.2-0.3,0.6-0.4,1.2-0.4c0.4,0,0.7,0.1,0.9,0.2c0.3,0.1,0.4,0.4,0.4,0.8
			v1.5c0,0.1,0,0.2,0,0.4c0,0.1,0,0.2,0.1,0.2c0,0,0.1,0.1,0.1,0.1v0.1h-0.9c0-0.1,0-0.1-0.1-0.2c0-0.1,0-0.1,0-0.2
			c-0.1,0.1-0.3,0.2-0.4,0.3c-0.2,0.1-0.4,0.2-0.6,0.2c-0.3,0-0.5-0.1-0.7-0.3c-0.2-0.2-0.3-0.4-0.3-0.7c0-0.4,0.2-0.7,0.5-0.9
			c0.2-0.1,0.4-0.2,0.7-0.2L126,222.6z"/>
		<path class="st28" d="M130.9,221.5c0.2,0.2,0.3,0.5,0.3,0.9v2.2h-0.9v-2c0-0.2,0-0.3-0.1-0.4c-0.1-0.2-0.2-0.3-0.5-0.3
			c-0.3,0-0.5,0.1-0.6,0.4c-0.1,0.1-0.1,0.3-0.1,0.5v1.8h-0.8v-3.3h0.8v0.5c0.1-0.2,0.2-0.3,0.3-0.4c0.2-0.1,0.4-0.2,0.7-0.2
			C130.4,221.2,130.7,221.3,130.9,221.5"/>
		<path class="st28" d="M133,222.1c-0.1,0.1-0.2,0.3-0.2,0.5h1.5c0-0.2-0.1-0.4-0.2-0.5c-0.1-0.1-0.3-0.2-0.5-0.2
			C133.3,221.9,133.1,222,133,222.1 M134.2,221.4c0.2,0.1,0.4,0.3,0.6,0.5c0.1,0.2,0.2,0.4,0.3,0.7c0,0.1,0,0.4,0,0.6h-2.4
			c0,0.3,0.1,0.6,0.3,0.7c0.1,0.1,0.3,0.1,0.5,0.1c0.2,0,0.3-0.1,0.5-0.1c0.1-0.1,0.1-0.1,0.2-0.2h0.9c0,0.2-0.1,0.4-0.3,0.6
			c-0.3,0.3-0.7,0.5-1.2,0.5c-0.4,0-0.8-0.1-1.1-0.4c-0.3-0.3-0.5-0.7-0.5-1.3c0-0.6,0.1-1,0.4-1.3c0.3-0.3,0.7-0.5,1.2-0.5
			C133.8,221.2,134,221.3,134.2,221.4"/>
		<path class="st28" d="M135.3,222v-0.6h0.5v-0.9h0.8v0.9h0.5v0.6h-0.5v1.7c0,0.1,0,0.2,0.1,0.3c0,0,0.1,0,0.3,0c0,0,0.1,0,0.1,0
			c0,0,0.1,0,0.1,0v0.6l-0.4,0c-0.4,0-0.7-0.1-0.8-0.2c-0.1-0.1-0.1-0.2-0.1-0.5v-2H135.3z"/>
	</g>
</g>
</svg>
