<?xml version="1.0" encoding="utf-8"?>
<!-- Generator: Adobe Illustrator 24.0.0, SVG Export Plug-In . SVG Version: 6.00 Build 0)  -->
<svg version="1.1" id="Layer_1" xmlns="http://www.w3.org/2000/svg" xmlns:xlink="http://www.w3.org/1999/xlink" x="0px" y="0px"
	 viewBox="0 0 153.1 240.9" style="enable-background:new 0 0 153.1 240.9;" xml:space="preserve">
<style type="text/css">
	.st0{clip-path:url(#SVGID_2_);fill:none;stroke:#169FDB;stroke-width:1.3022;stroke-miterlimit:10;}
	.st1{clip-path:url(#SVGID_2_);fill:#211E5F;}
	.st2{clip-path:url(#SVGID_2_);fill:#F39207;}
	.st3{clip-path:url(#SVGID_2_);fill:none;stroke:#1275BB;stroke-width:0.589;stroke-miterlimit:10;}
	.st4{clip-path:url(#SVGID_4_);fill:none;stroke:#0F265C;stroke-width:1.3022;stroke-miterlimit:10;}
	.st5{clip-path:url(#SVGID_4_);fill:#211E5F;}
	.st6{clip-path:url(#SVGID_4_);fill:#169FDB;}
	.st7{clip-path:url(#SVGID_4_);fill:none;stroke:#1275BB;stroke-width:0.7638;stroke-miterlimit:10;}
	.st8{clip-path:url(#XMLID_2_);fill:#FFFFFF;}
	.st9{clip-path:url(#XMLID_2_);}
	.st10{fill:none;stroke:#3AAA35;stroke-width:0.7638;stroke-miterlimit:10;}
	.st11{fill:#3AAA35;}
	.st12{fill:none;stroke:#F2E734;stroke-width:0.5184;stroke-miterlimit:10;}
	.st13{fill:none;stroke:#F39325;stroke-width:0.7638;stroke-miterlimit:10;}
	.st14{fill:#F39325;}
	.st15{fill:none;stroke:#E30613;stroke-width:0.5184;stroke-miterlimit:10;}
	.st16{fill:none;stroke:#662483;stroke-width:0.7125;stroke-miterlimit:10;}
	.st17{fill:#662483;}
	.st18{fill:none;stroke:#005CA9;stroke-width:0.8175;stroke-miterlimit:10;}
	.st19{fill:#E94E1B;}
	.st20{fill:#4E55A2;}
	.st21{fill:#005CA9;}
	.st22{fill:#169FDB;}
	.st23{fill:#00B2BB;}
	.st24{fill:none;stroke:#1275BB;stroke-width:0.7638;stroke-miterlimit:10;}
	.st25{fill:none;stroke:#1275BB;stroke-width:0.4087;stroke-miterlimit:10;}
	.st26{fill:#0F265C;}
	.st27{fill:#F2E734;}
	.st28{fill:#F39207;}
	.st29{fill:#E30613;}
	.st30{fill:#164194;}
	.st31{fill:#009BA4;}
	.st32{fill:#95C11F;}
	.st33{fill:#F9B233;}
	.st34{fill:#E94E1D;}
	.st35{fill:#E71D73;}
	.st36{fill:#1275BB;}
	.st37{fill:none;stroke:#0F265C;stroke-miterlimit:10;}
	.st38{fill:#78719A;}
	.st39{fill:#FFFFFF;}
	.st40{opacity:0.15;}
	.st41{fill:#070D33;}
	.st42{fill:#E8E8F0;}
	.st43{fill:#B5207F;}
	.st44{fill:#F7A600;}
	.st45{opacity:0.7;}
	.st46{fill:#0082CA;}
	.st47{fill:#EC6608;}
	.st48{clip-path:url(#SVGID_6_);fill:none;stroke:#0F265C;stroke-width:1.3022;stroke-miterlimit:10;}
	.st49{clip-path:url(#SVGID_6_);fill:#169FDB;}
	.st50{clip-path:url(#SVGID_6_);fill:#F39207;}
	.st51{clip-path:url(#SVGID_6_);fill:none;stroke:#1275BB;stroke-width:0.589;stroke-miterlimit:10;}
</style>
<ellipse transform="matrix(0.7071 -0.7071 0.7071 0.7071 -36.8728 30.8152)" class="st37" cx="18.8" cy="59.9" rx="121" ry="121"/>
<ellipse transform="matrix(0.7071 -0.7071 0.7071 0.7071 -29.3881 29.7903)" class="st14" cx="21.3" cy="50.4" rx="123.5" ry="123.5"/>
<g>
	<g>
		<g>
			<g>
				<path class="st38" d="M111,229.2c-18.1,0-20-10.2-19-17.7c0.4-2.8,1.2-5.2,1.7-6.6c0.3-0.8,0.5-1.2,0.5-1.2s2.5-4.1,16.8-4.1
					c14.3,0,16.8,4.1,16.8,4.1s0.2,0.4,0.5,1.2C130.2,209.9,135.9,229.2,111,229.2z"/>
			</g>
			<g>
				<path class="st39" d="M111,198.8c11.9,0,14,3.7,14,3.7s9.9,23.3-14,23.3c-23.9,0-14-23.3-14-23.3S99.1,198.8,111,198.8z"/>
			</g>
			<g class="st40">
				<path class="st41" d="M130,211.5c-1.1,3-4.3,9.3-10.5,6.1c0.1,0.1,2.1,2.9,6.1,1.5c0,0-0.5,7.5-14.6,7.5
					c-14.1,0-14.6-7.5-14.6-7.5c3.9,1.3,6-1.5,6.1-1.5c-6.2,3.1-9.3-3.1-10.5-6.1c-1,7.5,0.9,17.7,19,17.7S131,219,130,211.5z"/>
			</g>
			<g class="st40">
				<path class="st41" d="M115.5,217.1c-1.2-0.3-4.5-0.3-4.5-0.3s-3.3,0-4.5,0.3l-1,3.8c0,0,1.8-0.3,2.2-2.1c0.1-0.5,0.5-0.8,1-0.8
					c0.5,0,1.2-0.1,2.3-0.1s1.8,0,2.3,0.1c0.5,0,0.9,0.4,1,0.8c0.4,1.8,2.2,2.1,2.2,2.1L115.5,217.1z"/>
			</g>
			<g>
				<path class="st41" d="M111,229.7c-8.7,0-14.7-2.4-17.6-7c-2-3.2-2.6-7.6-1.7-12.6c0.7-3.8,2-6.5,2-6.7c0,0,0,0,0-0.1
					c0.1-0.2,2.8-4.4,17.3-4.4s17.1,4.2,17.3,4.4c0,0,0,0,0,0.1c0.1,0.1,1.3,2.9,2,6.7c0.9,5,0.4,9.4-1.7,12.6
					C125.7,227.4,119.7,229.7,111,229.7z M94.7,204c-0.3,0.7-4.9,11.2-0.4,18.2c2.8,4.3,8.4,6.5,16.7,6.5c8.4,0,14-2.2,16.7-6.5
					c4.5-7-0.1-17.5-0.4-18.2c-0.2-0.3-3.2-3.8-16.3-3.8C97.9,200.1,94.9,203.6,94.7,204z"/>
			</g>
		</g>
		<g>
			<g>
				<g>
					<path class="st42" d="M111,215.3h10.3c0,0-0.7-1.9-2.9-3.2c-0.3-0.2-0.7-0.3-1-0.4c-1.1-0.2-3.8-0.6-5,0.4H111h-1.3
						c-1.2-0.9-3.9-0.6-5-0.4c-0.4,0.1-0.7,0.2-1,0.4c-2.3,1.3-2.9,3.2-2.9,3.2H111z"/>
				</g>
				<g>
					<path class="st41" d="M100.7,215.5c-0.1,0-0.1,0-0.2-0.1c0-0.1-0.1-0.1,0-0.2c0-0.1,0.7-2,3-3.4c0.3-0.2,0.7-0.3,1.1-0.4
						c0.6-0.1,1.6-0.2,2.5-0.2c1.2,0,2,0.2,2.6,0.6c0,0,0.1,0,0.1,0h2.4c0,0,0.1,0,0.1,0c0.6-0.4,1.4-0.6,2.6-0.6
						c0.9,0,1.9,0.1,2.5,0.2c0.4,0.1,0.8,0.2,1.1,0.4c2.3,1.3,3,3.3,3,3.4c0,0.1,0,0.2,0,0.2c0,0.1-0.1,0.1-0.2,0.1H100.7z
						 M107.1,211.7c-0.7,0-1.5,0.1-2.4,0.2c-0.3,0.1-0.7,0.2-1,0.4c-1.4,0.8-2.1,1.8-2.5,2.5c0,0.1,0,0.1,0,0.2
						c0,0.1,0.1,0.1,0.2,0.1h19.2c0.1,0,0.1,0,0.2-0.1c0-0.1,0-0.1,0-0.2c-0.4-0.7-1.2-1.7-2.5-2.5c-0.3-0.2-0.6-0.3-1-0.4
						c-0.9-0.2-1.7-0.2-2.4-0.2c-1.1,0-1.9,0.2-2.4,0.6c0,0-0.1,0.1-0.1,0.1h-2.7c-0.1,0-0.1,0-0.1-0.1
						C109.1,211.9,108.2,211.7,107.1,211.7z"/>
				</g>
			</g>
			<g>
				<g>
					<path class="st42" d="M111,216.9c2.4,0,4.5,0.3,4.5,0.3s-0.7,3.9,2.7,3.8c3.5,0,3.1-5.7,3.1-5.7c-4.4-0.7-10.3-0.7-10.3-0.7
						s-5.9,0-10.3,0.7c0,0-0.4,5.7,3.1,5.7c3.4,0,2.7-3.8,2.7-3.8S108.6,216.9,111,216.9z"/>
				</g>
				<g>
					<path class="st41" d="M101,218.4l3.1-0.2c0.4,0,0.7,0.2,0.8,0.5c0.2,0.5,0.3,1.2-0.1,2.1C104.9,220.8,101.9,221.9,101,218.4z"
						/>
				</g>
				<g>
					<path class="st41" d="M104.8,214.9c0,0,0.2,0.5,0.1,1.3c0,0.5-0.4,0.8-0.9,0.8l-3.3,0.2l-0.1-1.9L104.8,214.9z"/>
				</g>
				<g>
					<path class="st41" d="M121,218.4l-3.1-0.2c-0.4,0-0.7,0.2-0.8,0.5c-0.2,0.5-0.3,1.2,0.1,2.1C117.2,220.8,120.1,221.9,121,218.4
						z"/>
				</g>
				<g>
					<path class="st41" d="M117.2,214.9c0,0-0.2,0.5-0.1,1.3c0,0.5,0.4,0.8,0.9,0.8l3.3,0.2l0.1-1.9L117.2,214.9z"/>
				</g>
				<g>
					<path class="st41" d="M118.2,221.2c-1,0-1.7-0.3-2.3-0.9c-0.7-0.9-0.8-2.1-0.7-2.8c0-0.1-0.1-0.2-0.2-0.2
						c-0.8-0.1-2.3-0.2-4-0.2c-1.7,0-3.2,0.1-4,0.2c-0.1,0-0.2,0.1-0.2,0.2c0,0.7,0,1.9-0.7,2.8c-0.5,0.6-1.3,0.9-2.3,0.9l0,0
						c-0.8,0-1.5-0.3-2.1-0.9c-1.5-1.6-1.3-4.9-1.2-5c0-0.1,0.1-0.2,0.2-0.2c4.4-0.7,10.3-0.7,10.3-0.7s5.9,0,10.3,0.7
						c0.1,0,0.2,0.1,0.2,0.2c0,0.1,0.3,3.4-1.2,5C119.7,220.9,119,221.2,118.2,221.2L118.2,221.2z M111,216.6c2.4,0,4.5,0.3,4.5,0.3
						c0.1,0,0.1,0,0.2,0.1c0,0.1,0.1,0.1,0,0.2c0,0-0.3,1.8,0.6,2.8c0.4,0.5,1.1,0.7,1.9,0.7l0,0c0.7,0,1.3-0.2,1.7-0.7
						c1.1-1.2,1.2-3.4,1.1-4.3c0-0.1-0.1-0.2-0.2-0.2c-4.3-0.6-9.8-0.6-9.9-0.6s-5.6,0-9.9,0.6c-0.1,0-0.2,0.1-0.2,0.2
						c0,0.9,0.1,3.2,1.1,4.3c0.5,0.5,1,0.7,1.7,0.7l0,0c0.8,0,1.5-0.3,1.9-0.7c0.9-1,0.6-2.8,0.6-2.8c0-0.1,0-0.1,0-0.2
						c0-0.1,0.1-0.1,0.2-0.1C106.5,216.9,108.6,216.6,111,216.6z"/>
				</g>
			</g>
			<g>
				<g>
					<g>
						<path class="st43" d="M107.3,213c0,0.2-0.2,0.4-0.5,0.5c-0.3,0.1-0.6-0.1-0.6-0.3c0-0.2,0.2-0.4,0.5-0.5
							C107,212.7,107.3,212.8,107.3,213z"/>
					</g>
					<g>
						<path class="st41" d="M106.7,213.7c-0.1,0-0.2,0-0.3-0.1c-0.2-0.1-0.3-0.2-0.3-0.4c0-0.2,0-0.3,0.2-0.4
							c0.1-0.1,0.3-0.2,0.5-0.2c0.4-0.1,0.8,0.1,0.8,0.4c0,0,0,0,0,0c0.1,0.3-0.2,0.6-0.6,0.7C106.8,213.7,106.7,213.7,106.7,213.7z
							 M106.9,212.8c-0.1,0-0.1,0-0.2,0c-0.2,0-0.3,0.1-0.4,0.2c-0.1,0.1-0.1,0.2-0.1,0.2c0,0.1,0.1,0.1,0.2,0.2
							c0.1,0.1,0.3,0.1,0.5,0c0.3-0.1,0.5-0.3,0.5-0.4C107.3,212.9,107.1,212.8,106.9,212.8z"/>
					</g>
				</g>
				<g>
					<g>
						<path class="st43" d="M105.9,213.7c0,0.2-0.2,0.4-0.6,0.5c-0.3,0.1-0.7-0.1-0.7-0.3c0-0.2,0.2-0.4,0.6-0.5
							C105.6,213.4,105.9,213.5,105.9,213.7z"/>
					</g>
					<g>
						<path class="st41" d="M105.3,214.4c-0.1,0-0.2,0-0.3-0.1c-0.2-0.1-0.3-0.2-0.3-0.4c0-0.2,0-0.3,0.2-0.4
							c0.1-0.1,0.3-0.2,0.5-0.2c0.4-0.1,0.8,0.1,0.8,0.4c0,0,0,0,0,0c0.1,0.3-0.2,0.6-0.6,0.7C105.4,214.4,105.3,214.4,105.3,214.4z
							 M105.4,213.5c-0.1,0-0.1,0-0.2,0c-0.2,0-0.3,0.1-0.4,0.2c-0.1,0.1-0.1,0.2-0.1,0.2c0,0.1,0.1,0.1,0.2,0.2
							c0.1,0.1,0.3,0.1,0.5,0c0.3-0.1,0.5-0.3,0.5-0.4C105.9,213.6,105.7,213.5,105.4,213.5z"/>
					</g>
				</g>
				<g>
					<g>
						<path class="st43" d="M104.9,213c0,0.2-0.2,0.4-0.5,0.5c-0.3,0.1-0.6-0.1-0.7-0.3c0-0.2,0.2-0.4,0.5-0.5
							C104.6,212.6,104.9,212.8,104.9,213z"/>
					</g>
					<g>
						<path class="st41" d="M104.2,213.6c-0.3,0-0.6-0.2-0.6-0.4c-0.1-0.3,0.2-0.6,0.6-0.7c0.2,0,0.4,0,0.5,0.1
							c0.2,0.1,0.3,0.2,0.3,0.4c0,0.2,0,0.3-0.2,0.4c-0.1,0.1-0.3,0.2-0.5,0.2C104.4,213.6,104.3,213.6,104.2,213.6z M104.4,212.7
							c-0.1,0-0.1,0-0.2,0c-0.3,0.1-0.5,0.3-0.5,0.4c0,0.1,0.3,0.3,0.6,0.2c0.2,0,0.3-0.1,0.4-0.2c0.1-0.1,0.1-0.2,0.1-0.2
							c0,0,0,0,0,0c0-0.1-0.1-0.1-0.2-0.2C104.6,212.8,104.5,212.7,104.4,212.7z"/>
					</g>
				</g>
				<g>
					<g>
						<path class="st43" d="M106.3,212.3c0,0.2-0.2,0.4-0.5,0.5c-0.3,0.1-0.6-0.1-0.7-0.3c0-0.2,0.2-0.4,0.5-0.5
							C105.9,212,106.2,212.1,106.3,212.3z"/>
					</g>
					<g>
						<path class="st41" d="M105.6,212.9c-0.3,0-0.6-0.2-0.6-0.4c0-0.2,0-0.3,0.2-0.4c0.1-0.1,0.3-0.2,0.5-0.2
							c0.4-0.1,0.8,0.1,0.8,0.4l0,0c0,0.2,0,0.3-0.2,0.4c-0.1,0.1-0.3,0.2-0.5,0.2C105.7,212.9,105.7,212.9,105.6,212.9z M105.8,212
							c-0.1,0-0.1,0-0.2,0c-0.2,0-0.3,0.1-0.4,0.2c-0.1,0.1-0.1,0.2-0.1,0.2c0,0.1,0.3,0.3,0.6,0.2c0.2,0,0.3-0.1,0.4-0.2
							c0.1-0.1,0.1-0.2,0.1-0.2l0,0C106.2,212.1,106,212,105.8,212z"/>
					</g>
				</g>
			</g>
			<g>
				<g>
					<path class="st43" d="M111,214.5c1.7,0,2.9,0.1,2.9,0.1l-0.7-0.9c-0.2-0.3-0.5-0.4-0.9-0.4H111h-1.3c-0.3,0-0.7,0.2-0.9,0.4
						l-0.7,0.9C108.1,214.6,109.3,214.5,111,214.5z"/>
				</g>
				<g>
					<path class="st41" d="M108.1,214.7c0,0-0.1,0-0.1-0.1c0,0,0-0.1,0-0.1l0.7-0.9c0.2-0.3,0.6-0.5,1-0.5h2.7c0.4,0,0.7,0.2,1,0.5
						l0.7,0.9c0,0,0,0.1,0,0.1c0,0-0.1,0.1-0.1,0.1c0,0-1.2-0.1-2.9-0.1C109.3,214.6,108.1,214.7,108.1,214.7L108.1,214.7z
						 M111,214.4c1,0,1.8,0,2.3,0c0,0,0,0,0,0c0.1,0,0.1,0,0.2-0.1c0-0.1,0-0.1,0-0.2l-0.3-0.4c-0.2-0.2-0.5-0.4-0.8-0.4h-2.7
						c-0.3,0-0.6,0.1-0.8,0.4l-0.3,0.4c0,0.1-0.1,0.1,0,0.2c0,0.1,0.1,0.1,0.2,0.1c0,0,0,0,0,0C109.2,214.4,110,214.4,111,214.4z"/>
				</g>
			</g>
			<g>
				<g>
					<path class="st41" d="M117.9,214.2l-0.3-0.6c0,0,0,0,0,0l-0.4-0.2c0,0-0.1,0-0.1,0l-0.2,0.1c-0.1,0-0.1,0.1,0,0.1l0.3,0.6
						c0,0,0,0,0.1,0.1l0.6,0C117.9,214.3,117.9,214.2,117.9,214.2z"/>
				</g>
				<g>
					<path class="st41" d="M116,212.3l0.3,0.6c0,0,0,0,0,0l0.4,0.2c0,0,0.1,0,0.1,0l0.2-0.1c0.1,0,0.1-0.1,0-0.1l-0.3-0.6
						c0,0,0,0-0.1-0.1l-0.6,0C116.1,212.1,116,212.2,116,212.3z"/>
				</g>
				<g>
					<path class="st41" d="M115.5,212.9l0.7,0c0,0,0,0,0.1,0l0.4,0.3c0,0,0,0,0,0.1l0,0.3c0,0.1,0,0.1-0.1,0.1l-0.7,0
						c0,0-0.1,0-0.1,0l-0.3-0.5C115.4,213,115.4,212.9,115.5,212.9z"/>
				</g>
				<g>
					<path class="st41" d="M118.4,213.6l-0.7,0c0,0,0,0-0.1,0l-0.4-0.3c0,0,0,0,0-0.1l0-0.3c0-0.1,0-0.1,0.1-0.1l0.7,0
						c0,0,0.1,0,0.1,0.1l0.3,0.5C118.6,213.5,118.5,213.6,118.4,213.6z"/>
				</g>
			</g>
			<g>
				<g>
					<path class="st41" d="M109.5,212.3c0,0.3-0.5,0.5-1.1,0.5s-1.1-0.2-1.1-0.5c0-0.3,0.5-0.5,1.1-0.5S109.5,212,109.5,212.3z"/>
				</g>
				<g>
					<path class="st41" d="M109.8,210.7L109.8,210.7L109.8,210.7C109.8,210.7,109.8,210.7,109.8,210.7l-0.1-0.4l0,0
						c-0.1-0.3-0.6-0.5-1.2-0.5c-0.6,0-1.2,0.2-1.2,0.5l0,0l-0.1,0.3c0,0,0,0,0,0l0,0h0c0,0,0,0,0,0.1c0,0.3,0.6,0.6,1.3,0.6
						C109.2,211.4,109.8,211.1,109.8,210.7C109.8,210.7,109.8,210.7,109.8,210.7z"/>
				</g>
				<g>
					<path class="st41" d="M112.5,212.3c0,0.3,0.5,0.5,1.1,0.5s1.1-0.2,1.1-0.5c0-0.3-0.5-0.5-1.1-0.5S112.5,212,112.5,212.3z"/>
				</g>
				<g>
					<path class="st41" d="M112.2,210.7L112.2,210.7L112.2,210.7C112.2,210.7,112.2,210.7,112.2,210.7l0.1-0.4l0,0
						c0.1-0.3,0.6-0.5,1.2-0.5s1.2,0.2,1.2,0.5l0,0l0.1,0.3c0,0,0,0,0,0l0,0h0c0,0,0,0,0,0.1c0,0.3-0.6,0.6-1.3,0.6
						S112.2,211.1,112.2,210.7C112.2,210.7,112.2,210.7,112.2,210.7z"/>
				</g>
			</g>
		</g>
		<g>
			<g>
				<path class="st44" d="M103.3,230.1c1.8,0.5,3.4-1,3.3-2.8c-0.2-3.3-0.9-7.7-2.3-8.2c-2.4-0.9-2.7,2.3-2.7,2.3
					c-0.7-0.8-1.6-1.3-2.4-1.6c-1.2-0.5-2.3,0.5-2.1,1.7c0.2,0.9,0.5,1.8,1.2,2.6c0,0-3.1-0.2-2.7,2.3
					C95.9,227.9,100.1,229.3,103.3,230.1z"/>
			</g>
			<g class="st45">
				<path class="st39" d="M97.2,222c0.2-0.9,1.1-1.5,2.1-1.2c0.8,0.3,1.7,0.8,2.4,1.6c0,0,0.3-3.1,2.7-2.3c1.1,0.4,1.7,2.8,2,5.3
					c-0.3-2.9-1-6-2.2-6.4c-2.4-0.9-2.7,2.3-2.7,2.3c-0.7-0.8-1.6-1.3-2.4-1.6c-1.2-0.5-2.3,0.5-2.1,1.7
					C97.2,221.6,97.2,221.8,97.2,222z"/>
			</g>
			<g class="st40">
				<path class="st41" d="M106.6,227.3c-0.2-3.2-0.8-7.5-2.3-8.2c1.1,1,1.5,4.5,1.7,7.1c0.1,1.6-1.4,2.9-2.9,2.5
					c-2.8-0.7-6.6-1.9-6.8-3.3c-0.1-0.3,0-0.6,0-0.8c-0.5,0.3-0.8,0.9-0.7,1.8c0.3,1.6,4.5,2.9,7.7,3.7
					C105.1,230.5,106.8,229.1,106.6,227.3z"/>
			</g>
			<g>
				<path class="st41" d="M104,230.7c-0.3,0-0.5,0-0.8-0.1c-2-0.5-3.7-1.1-5-1.6c-1.9-0.8-2.9-1.6-3.1-2.6c-0.2-1,0.2-1.7,0.5-2
					c0.5-0.5,1.2-0.7,1.7-0.8c-0.3-0.6-0.6-1.3-0.7-2c-0.2-0.8,0.1-1.5,0.7-2c0.6-0.5,1.4-0.6,2.1-0.3c0.7,0.3,1.3,0.6,1.9,1.1
					c0.2-0.6,0.5-1.2,1.1-1.6c0.4-0.3,1.1-0.5,2.1-0.1c0.9,0.3,1.5,1.4,2,3.5c0.3,1.4,0.6,3.1,0.7,5.2c0.1,1-0.3,2-1.1,2.7
					C105.4,230.5,104.7,230.7,104,230.7z M98.1,224.6c-0.5,0-1.3,0.1-1.7,0.5c-0.2,0.3-0.3,0.6-0.2,1.1c0.1,0.7,2.1,2,7.3,3.3l0,0
					c0.7,0.2,1.3,0,1.9-0.4c0.5-0.4,0.8-1.1,0.7-1.8c-0.4-5.3-1.3-7.5-2-7.8c-0.5-0.2-0.8-0.2-1.1,0c-0.6,0.4-0.8,1.4-0.9,1.8
					c0,0.2-0.2,0.4-0.4,0.5c-0.2,0.1-0.4,0-0.6-0.2c-0.5-0.6-1.2-1.1-2.2-1.5c-0.4-0.1-0.7-0.1-1,0.2c-0.3,0.2-0.4,0.6-0.3,1
					c0.2,1,0.6,1.8,1.1,2.4c0.1,0.2,0.2,0.4,0.1,0.6c-0.1,0.2-0.3,0.3-0.5,0.3C98.2,224.6,98.2,224.6,98.1,224.6z"/>
			</g>
			<g>
				<path class="st41" d="M98.6,223.6c0.2,0.1,0.4,0.3,0.5,0.4c0.2,0.1,0.3,0.3,0.5,0.5c0.3,0.3,0.6,0.7,0.9,1
					c-0.5-0.1-0.9-0.3-1.3-0.4c-0.2-0.1-0.4-0.2-0.6-0.3c-0.2-0.1-0.4-0.2-0.6-0.3c-0.3-0.2-0.3-0.5-0.2-0.8
					C98,223.5,98.4,223.5,98.6,223.6z"/>
			</g>
			<g>
				<path class="st41" d="M102.1,221.2c0.1,0.2,0.2,0.4,0.2,0.6c0.1,0.2,0.1,0.4,0.1,0.7c0.1,0.4,0.2,0.9,0.2,1.4
					c-0.3-0.4-0.6-0.7-0.9-1.1c-0.1-0.2-0.3-0.4-0.4-0.6c-0.1-0.2-0.2-0.4-0.3-0.6c-0.1-0.3,0-0.6,0.3-0.7
					C101.6,220.8,102,220.9,102.1,221.2z"/>
			</g>
		</g>
		<g>
			<g>
				<path class="st44" d="M118.7,230.1c-1.8,0.5-3.4-1-3.3-2.8c0.2-3.3,0.9-7.7,2.3-8.2c2.4-0.9,2.7,2.3,2.7,2.3
					c0.7-0.8,1.6-1.3,2.4-1.6c1.2-0.5,2.3,0.5,2.1,1.7c-0.2,0.9-0.5,1.8-1.2,2.6c0,0,3.1-0.2,2.7,2.3
					C126.1,227.9,121.9,229.3,118.7,230.1z"/>
			</g>
			<g class="st45">
				<path class="st39" d="M124.8,222c-0.2-0.9-1.1-1.5-2.1-1.2c-0.8,0.3-1.7,0.8-2.4,1.6c0,0-0.3-3.1-2.7-2.3
					c-1.1,0.4-1.7,2.8-2,5.3c0.3-2.9,1-6,2.2-6.4c2.4-0.9,2.7,2.3,2.7,2.3c0.7-0.8,1.6-1.3,2.4-1.6c1.2-0.5,2.3,0.5,2.1,1.7
					C124.8,221.6,124.8,221.8,124.8,222z"/>
			</g>
			<g class="st40">
				<path class="st41" d="M115.4,227.3c0.2-3.2,0.8-7.5,2.3-8.2c-1.1,1-1.5,4.5-1.7,7.1c-0.1,1.6,1.4,2.9,2.9,2.5
					c2.8-0.7,6.6-1.9,6.8-3.3c0.1-0.3,0-0.6,0-0.8c0.5,0.3,0.8,0.9,0.7,1.8c-0.3,1.6-4.5,2.9-7.7,3.7
					C116.9,230.5,115.2,229.1,115.4,227.3z"/>
			</g>
			<g>
				<path class="st41" d="M118,230.7c-0.7,0-1.5-0.3-2-0.7c-0.8-0.7-1.2-1.6-1.1-2.7c0.2-2.1,0.4-3.9,0.7-5.2c0.5-2.1,1.1-3.2,2-3.5
					c1-0.4,1.7-0.1,2.1,0.1c0.6,0.4,0.9,1,1.1,1.6c0.5-0.4,1.1-0.8,1.9-1.1c0.7-0.3,1.5-0.2,2.1,0.3c0.6,0.5,0.9,1.3,0.7,2
					c-0.2,0.8-0.4,1.4-0.7,2c0.6,0.1,1.3,0.3,1.7,0.8c0.3,0.4,0.7,1,0.5,2c-0.2,0.9-1.1,1.7-3.1,2.6c-1.3,0.6-3,1.1-5,1.6l0,0
					C118.5,230.7,118.3,230.7,118,230.7z M118.5,219.5c-0.2,0-0.4,0-0.6,0.1c-0.7,0.3-1.6,2.4-2,7.8c-0.1,0.7,0.2,1.3,0.7,1.8
					c0.5,0.4,1.2,0.6,1.9,0.4l0,0c5.2-1.3,7.2-2.6,7.3-3.3c0.1-0.5,0-0.8-0.2-1.1c-0.5-0.5-1.6-0.6-1.9-0.5c-0.2,0-0.4-0.1-0.5-0.3
					c-0.1-0.2-0.1-0.4,0.1-0.6c0.5-0.6,0.9-1.4,1.1-2.4c0.1-0.4,0-0.7-0.3-1c-0.3-0.2-0.7-0.3-1-0.2c-0.9,0.4-1.6,0.9-2.2,1.5
					c-0.1,0.2-0.4,0.2-0.6,0.2c-0.2-0.1-0.4-0.2-0.4-0.5c0-0.4-0.3-1.4-0.9-1.8C118.9,219.5,118.7,219.5,118.5,219.5z"/>
			</g>
			<g>
				<path class="st41" d="M124,224.5c-0.2,0.1-0.4,0.2-0.6,0.3c-0.2,0.1-0.4,0.2-0.6,0.3c-0.4,0.2-0.9,0.3-1.3,0.4
					c0.3-0.4,0.6-0.7,0.9-1c0.2-0.2,0.3-0.3,0.5-0.5c0.2-0.1,0.3-0.3,0.5-0.4c0.3-0.2,0.6-0.1,0.8,0.2
					C124.3,224.1,124.2,224.4,124,224.5z"/>
			</g>
			<g>
				<path class="st41" d="M120.9,221.6c-0.1,0.2-0.2,0.4-0.3,0.6c-0.1,0.2-0.2,0.4-0.4,0.6c-0.3,0.4-0.5,0.7-0.9,1.1
					c0-0.5,0.1-0.9,0.2-1.4c0-0.2,0.1-0.4,0.1-0.7c0.1-0.2,0.1-0.4,0.2-0.6c0.1-0.3,0.4-0.4,0.7-0.3
					C120.9,221,121,221.3,120.9,221.6z"/>
			</g>
		</g>
		<g>
			<g>
				<path class="st38" d="M102.2,213.1c-3.8-3.5-4.6-8.1-4.6-8.1l-1.5-0.5l-0.6,1.9h0c-1.2,1.2-2.5,3.2-2.4,6.5
					c0.1,4.3,4.2,5.5,6,5.9c0.7,0.2,1.5,0.1,2.1-0.2c1.7-0.8,2.1-2,2.1-3C103.2,214.6,102.8,213.8,102.2,213.1z"/>
			</g>
			<g class="st40">
				<path class="st41" d="M102.9,216.9c0,0-5.8,1.9-9.7-4.6c-0.1-0.1-0.2-0.1-0.2,0.1c0,1.2,0.5,4.4,5.1,6.1
					C98.1,218.5,101,219.8,102.9,216.9z"/>
			</g>
			<g>
				<path class="st41" d="M98.1,204.9c0,0.1,0.1,0.3,0.1,0.4c0,0.1,0.1,0.3,0.1,0.4c0,0.1,0.1,0.3,0.1,0.4l0.1,0.4
					c0.1,0.3,0.2,0.5,0.3,0.8c0.1,0.1,0.1,0.3,0.2,0.4l0.2,0.4c0.4,1,1,1.9,1.7,2.8l0.5,0.6l0.5,0.6c0.2,0.2,0.4,0.4,0.6,0.6
					c0.1,0.1,0.2,0.2,0.3,0.3c0.1,0.1,0.2,0.2,0.3,0.4c0.4,0.5,0.6,1.2,0.7,1.8c0,0.3,0,0.7,0,1c-0.1,0.3-0.2,0.6-0.3,1
					c-0.3,0.6-0.8,1.1-1.3,1.5c-0.3,0.2-0.5,0.3-0.8,0.5c-0.3,0.1-0.6,0.2-0.9,0.3c-0.3,0.1-0.6,0.1-1,0c-0.2,0-0.3,0-0.5-0.1
					c-0.2,0-0.3-0.1-0.4-0.1c-0.6-0.2-1.1-0.4-1.7-0.7c-0.5-0.3-1-0.6-1.5-1l-0.3-0.3l-0.3-0.3c-0.1-0.1-0.2-0.2-0.3-0.3l-0.1-0.2
					c0-0.1-0.1-0.1-0.1-0.2c-0.7-1-1.2-2.1-1.2-3.3c0,0,0-0.1,0.1-0.1c0,0,0.1,0,0.1,0l0,0c0.1,0.1,0.1,0.3,0.2,0.4
					c0.1,0.1,0.1,0.3,0.2,0.4c0.1,0.1,0.1,0.2,0.2,0.4l0.1,0.2c0,0.1,0.1,0.1,0.1,0.2c0.1,0.1,0.1,0.2,0.2,0.4
					c0.1,0.1,0.2,0.2,0.2,0.3l0.1,0.2c0,0.1,0.1,0.1,0.1,0.2c0.1,0.1,0.2,0.2,0.2,0.3c0,0.1,0.1,0.1,0.1,0.2L95,216
					c0.1,0.1,0.2,0.2,0.3,0.3l0.3,0.3l0.3,0.3c0.4,0.3,0.9,0.6,1.4,0.8c0.5,0.2,1,0.4,1.5,0.6c0.1,0,0.3,0.1,0.4,0.1
					c0.1,0,0.2,0,0.4,0.1c0.2,0,0.5,0,0.7,0c0.2,0,0.5-0.1,0.7-0.2c0.2-0.1,0.5-0.2,0.7-0.4c0.4-0.3,0.7-0.6,0.9-1.1
					c0.1-0.2,0.2-0.4,0.2-0.7c0-0.2,0-0.5,0-0.7c-0.1-0.5-0.2-0.9-0.5-1.3c-0.1-0.1-0.1-0.2-0.2-0.3c-0.1-0.1-0.2-0.2-0.3-0.3
					c-0.2-0.2-0.4-0.4-0.6-0.6l-0.6-0.7l-0.5-0.7c-0.7-0.9-1.3-2-1.8-3l-0.2-0.4c-0.1-0.1-0.1-0.3-0.2-0.4c-0.1-0.3-0.2-0.5-0.3-0.8
					l-0.1-0.4c0-0.1-0.1-0.3-0.1-0.4c0-0.1-0.1-0.3-0.1-0.4c0-0.1-0.1-0.3-0.1-0.5c-0.1-0.3,0.1-0.6,0.4-0.6
					C97.8,204.4,98.1,204.6,98.1,204.9L98.1,204.9z"/>
			</g>
		</g>
		<g>
			<g>
				<path class="st38" d="M119.8,213.1c3.8-3.5,4.6-8.1,4.6-8.1l1.5-0.5l0.6,1.9h0c1.2,1.2,2.5,3.2,2.4,6.5c-0.1,4.3-4.2,5.5-6,5.9
					c-0.7,0.2-1.5,0.1-2.1-0.2c-1.7-0.8-2.1-2-2.1-3C118.8,214.6,119.2,213.8,119.8,213.1z"/>
			</g>
			<g class="st40">
				<path class="st41" d="M119.1,216.9c0,0,5.8,1.9,9.7-4.6c0.1-0.1,0.2-0.1,0.2,0.1c0,1.2-0.5,4.4-5.1,6.1
					C123.9,218.5,121,219.8,119.1,216.9z"/>
			</g>
			<g>
				<path class="st41" d="M124.9,205.1c0,0.2-0.1,0.3-0.1,0.5c0,0.1-0.1,0.3-0.1,0.4c0,0.1-0.1,0.3-0.1,0.4l-0.1,0.4
					c-0.1,0.3-0.2,0.6-0.3,0.8c-0.1,0.1-0.1,0.3-0.2,0.4l-0.2,0.4c-0.5,1.1-1.1,2.1-1.8,3l-0.5,0.7l-0.6,0.7
					c-0.2,0.2-0.4,0.4-0.6,0.6c-0.1,0.1-0.2,0.2-0.3,0.3c-0.1,0.1-0.2,0.2-0.2,0.3c-0.3,0.4-0.5,0.8-0.5,1.3c0,0.2,0,0.5,0,0.7
					c0,0.2,0.1,0.5,0.2,0.7c0.2,0.4,0.5,0.8,0.9,1.1c0.2,0.1,0.4,0.3,0.7,0.4c0.2,0.1,0.4,0.2,0.7,0.2c0.2,0,0.5,0.1,0.7,0
					c0.1,0,0.2,0,0.4-0.1c0.1,0,0.3-0.1,0.4-0.1c0.5-0.1,1-0.3,1.5-0.6c0.5-0.2,0.9-0.5,1.4-0.8l0.3-0.3l0.3-0.3
					c0.1-0.1,0.2-0.2,0.3-0.3l0.1-0.1c0,0,0.1-0.1,0.1-0.2c0.1-0.1,0.2-0.2,0.2-0.3c0-0.1,0.1-0.1,0.1-0.2l0.1-0.2
					c0.1-0.1,0.2-0.2,0.2-0.3c0.1-0.1,0.1-0.2,0.2-0.4c0-0.1,0.1-0.1,0.1-0.2l0.1-0.2c0.1-0.1,0.1-0.2,0.2-0.4
					c0.1-0.1,0.1-0.3,0.2-0.4c0.1-0.1,0.1-0.3,0.2-0.4l0,0c0,0,0.1,0,0.1,0c0,0,0,0,0,0.1c0,1.2-0.5,2.3-1.2,3.3
					c0,0.1-0.1,0.1-0.1,0.2l-0.1,0.2c-0.1,0.1-0.2,0.2-0.3,0.3l-0.3,0.3l-0.3,0.3c-0.5,0.4-1,0.7-1.5,1c-0.5,0.3-1.1,0.5-1.7,0.7
					c-0.1,0-0.3,0.1-0.4,0.1c-0.2,0-0.3,0.1-0.5,0.1c-0.3,0-0.6,0-1,0c-0.3-0.1-0.6-0.1-0.9-0.3c-0.3-0.1-0.6-0.3-0.8-0.5
					c-0.5-0.4-1-0.8-1.3-1.5c-0.1-0.3-0.2-0.6-0.3-1c-0.1-0.3-0.1-0.7,0-1c0.1-0.7,0.3-1.3,0.7-1.8c0.1-0.1,0.2-0.3,0.3-0.4
					c0.1-0.1,0.2-0.2,0.3-0.3c0.2-0.2,0.4-0.4,0.6-0.6l0.5-0.6l0.5-0.6c0.6-0.9,1.2-1.8,1.7-2.8l0.2-0.4c0.1-0.1,0.1-0.3,0.2-0.4
					c0.1-0.3,0.2-0.5,0.3-0.8l0.1-0.4c0-0.1,0.1-0.3,0.1-0.4c0-0.1,0.1-0.3,0.1-0.4c0-0.1,0.1-0.3,0.1-0.4l0,0
					c0.1-0.3,0.3-0.5,0.6-0.4C124.8,204.5,125,204.8,124.9,205.1z"/>
			</g>
		</g>
		<g class="st40">
			<path class="st41" d="M128.3,204.9c-3.3,1.8-8.6,3.2-17.3,3.2c-8.7,0-14-1.3-17.3-3.2c0.3-0.8,0.5-1.2,0.5-1.2s2.5-4.1,16.8-4.1
				c14.3,0,16.8,4.1,16.8,4.1S128,204.1,128.3,204.9z"/>
		</g>
		<g>
			<g>
				<path class="st46" d="M111,167c11.7,0,16.3,6.9,16.3,6.9l2.4-1.9c0,0-4.9-8-18.7-8c-13.8,0-18.7,8-18.7,8l2.4,1.9
					C94.7,173.9,99.3,167,111,167z"/>
			</g>
			<g class="st45">
				<path class="st39" d="M111,164.9c11.5,0,16.8,5.6,18.3,7.4l0.4-0.4c0,0-4.9-8-18.7-8c-13.8,0-18.7,8-18.7,8l0.4,0.4
					C94.2,170.4,99.5,164.9,111,164.9z"/>
			</g>
			<g>
				<path class="st41" d="M127.3,174.4C127.3,174.4,127.3,174.4,127.3,174.4c-0.2,0-0.4-0.1-0.5-0.2c0,0-1.2-1.7-3.7-3.3
					c-2.3-1.5-6.3-3.3-12.2-3.3c-5.9,0-9.9,1.8-12.2,3.3c-2.5,1.6-3.7,3.3-3.7,3.3c-0.1,0.1-0.2,0.2-0.4,0.2c-0.2,0-0.3,0-0.4-0.1
					l-2.4-1.9c-0.2-0.2-0.3-0.5-0.1-0.7c0.1-0.1,1.3-2.1,4.4-4.2c2.8-1.9,7.6-4.1,14.9-4.1c7.3,0,12.1,2.2,14.9,4.1
					c3,2.1,4.3,4.1,4.4,4.2c0.1,0.2,0.1,0.5-0.1,0.7l-2.4,1.9C127.6,174.4,127.4,174.4,127.3,174.4z M93,171.8l1.6,1.3
					c0.5-0.6,1.7-1.9,3.6-3.1c2.4-1.6,6.7-3.5,12.8-3.5c6.2,0,10.4,1.9,12.8,3.5c1.9,1.2,3,2.5,3.6,3.1l1.6-1.3
					c-0.5-0.7-1.7-2.1-3.8-3.5c-2.6-1.8-7.2-3.9-14.2-3.9C99.4,164.4,94.2,170.2,93,171.8z"/>
			</g>
		</g>
		<g>
			<g>
				<g>
					<path class="st43" d="M88.9,176.3c0,0,0.4-1.6,1.5-3c0.9-1.1,2.3-1.7,3.7-1.3c0.5,0.1,1,0.4,1.6,0.9l-1.6,3.7L88.9,176.3z"/>
				</g>
				<g class="st45">
					<path class="st39" d="M90.2,174.3c0.9-1.1,2.3-1.7,3.7-1.3c0.4,0.1,0.9,0.3,1.3,0.7l0.4-0.9c-0.5-0.5-1-0.7-1.6-0.9
						c-1.4-0.4-2.9,0.2-3.7,1.3c-1.1,1.5-1.5,3-1.5,3l0.2,0C89.3,175.7,89.7,175,90.2,174.3z"/>
				</g>
				<g>
					<path class="st41" d="M94,177C94,177,94,177,94,177l-5.2-0.2c-0.2,0-0.3-0.1-0.4-0.2c-0.1-0.1-0.1-0.3-0.1-0.5
						c0-0.1,0.4-1.7,1.6-3.2c1-1.4,2.7-2,4.3-1.5c0.6,0.2,1.2,0.5,1.8,1c0.2,0.2,0.2,0.4,0.1,0.6l-1.6,3.7
						C94.4,176.9,94.2,177,94,177z M89.6,175.8l4.1,0.2l1.3-3c-0.3-0.2-0.7-0.4-1-0.5c-1.2-0.3-2.4,0.1-3.2,1.1
						C90.2,174.4,89.8,175.2,89.6,175.8z"/>
				</g>
			</g>
			<g>
				<g>
					<path class="st43" d="M87.5,187.8c0,0-6.8-0.3-5.4-7.2c1.3-6.4,8.3-4.1,8.3-4.1S88.4,178.5,87.5,187.8z"/>
				</g>
				<g class="st40">
					<path class="st41" d="M87.7,184.3c0,0-4.6-0.2-5.4-4c0,0.1-0.1,0.3-0.1,0.4c-1.4,6.9,5.4,7.2,5.4,7.2
						c0.9-9.2,2.9-11.3,2.9-11.3s-0.5-0.2-1.4-0.3C88.6,177.9,88,180.5,87.7,184.3z"/>
				</g>
				<g class="st45">
					<path class="st39" d="M82.3,181.8c1-5.1,5.7-4.7,7.6-4.3c0.4-0.8,0.6-1,0.6-1s-7.1-2.2-8.3,4.1c-0.2,1.2-0.2,2.2-0.1,3
						C82.1,183.1,82.1,182.5,82.3,181.8z"/>
				</g>
				<g>
					<path class="st41" d="M87.5,188.3C87.5,188.3,87.5,188.3,87.5,188.3c-0.2,0-3.2-0.2-5-2.4c-1.1-1.4-1.4-3.2-1-5.4
						c0.4-1.9,1.3-3.3,2.7-4.1c2.7-1.6,6.2-0.5,6.4-0.5c0.2,0.1,0.3,0.2,0.4,0.4c0,0.2,0,0.4-0.1,0.5c0,0-1.9,2.2-2.8,10.9
						C88.1,188.1,87.8,188.3,87.5,188.3z M87.7,176.7c-1,0-2,0.2-2.9,0.7c-1.1,0.7-1.8,1.8-2.1,3.4c-0.4,1.9-0.1,3.4,0.7,4.5
						c1.1,1.3,2.8,1.8,3.6,1.9c0.6-6.2,1.8-9.1,2.5-10.3C89.1,176.8,88.5,176.7,87.7,176.7z"/>
				</g>
			</g>
			<g>
				<g>
					<path class="st39" d="M90.3,190.6c0,0-6,0-3.8-9.3c1.7-7.6,6.6-6.7,8.5-6.1C94.9,175.2,91.6,179.3,90.3,190.6z"/>
				</g>
				<g class="st40">
					<path class="st41" d="M86.7,180.2c-0.1,0.3-0.2,0.7-0.3,1c-2.1,9.3,3.8,9.3,3.8,9.3c0.2-1.6,0.4-3,0.7-4.4
						C90.4,186.2,86.6,185.8,86.7,180.2z"/>
				</g>
				<g>
					<path class="st41" d="M90.3,191.1c-0.1,0-2.1,0-3.5-1.8c-1.4-1.7-1.7-4.5-0.8-8.2c0.7-3.1,2-5.2,3.8-6.2c2-1.1,4.2-0.6,5.4-0.3
						c0.2,0.1,0.3,0.2,0.3,0.4s0,0.4-0.1,0.5c0,0-3.3,4.2-4.5,15.1C90.8,190.9,90.6,191.1,90.3,191.1z M92.6,175.3
						c-0.7,0-1.5,0.1-2.3,0.6c-1.6,0.9-2.7,2.7-3.3,5.5c-0.8,3.3-0.5,5.8,0.6,7.3c0.7,0.9,1.7,1.2,2.2,1.3c1.1-8.6,3.3-13,4.3-14.5
						C93.6,175.4,93.1,175.3,92.6,175.3z"/>
				</g>
			</g>
		</g>
		<g>
			<g>
				<g>
					<path class="st43" d="M133.1,176.3c0,0-0.4-1.6-1.5-3c-0.9-1.1-2.3-1.7-3.7-1.3c-0.5,0.1-1,0.4-1.6,0.9l1.6,3.7L133.1,176.3z"
						/>
				</g>
				<g class="st45">
					<path class="st39" d="M131.7,174.3c-0.9-1.1-2.3-1.7-3.7-1.3c-0.4,0.1-0.9,0.3-1.3,0.7l-0.4-0.9c0.5-0.5,1-0.7,1.6-0.9
						c1.4-0.4,2.9,0.2,3.7,1.3c1.1,1.5,1.5,3,1.5,3l-0.2,0C132.6,175.7,132.2,175,131.7,174.3z"/>
				</g>
				<g>
					<path class="st41" d="M127.9,177c-0.2,0-0.4-0.1-0.5-0.3l-1.6-3.7c-0.1-0.2,0-0.5,0.1-0.6c0.5-0.5,1.1-0.8,1.8-1
						c1.6-0.4,3.3,0.2,4.3,1.5c1.2,1.5,1.5,3.2,1.6,3.2c0,0.2,0,0.3-0.1,0.5c-0.1,0.1-0.2,0.2-0.4,0.2L127.9,177
						C127.9,177,127.9,177,127.9,177z M127,173l1.3,3l4.1-0.2c-0.2-0.6-0.6-1.4-1.2-2.2c-0.8-1-2-1.4-3.2-1.1
						C127.6,172.5,127.3,172.7,127,173z"/>
				</g>
			</g>
			<g>
				<g>
					<path class="st43" d="M134.4,187.8c0,0,6.8-0.3,5.4-7.2c-1.3-6.4-8.3-4.1-8.3-4.1S133.5,178.5,134.4,187.8z"/>
				</g>
				<g class="st40">
					<path class="st41" d="M134.3,184.3c0,0,4.6-0.2,5.4-4c0,0.1,0.1,0.3,0.1,0.4c1.4,6.9-5.4,7.2-5.4,7.2
						c-0.9-9.2-2.9-11.3-2.9-11.3s0.5-0.2,1.4-0.3C133.4,177.9,133.9,180.5,134.3,184.3z"/>
				</g>
				<g class="st45">
					<path class="st39" d="M139.7,181.8c-1-5.1-5.7-4.7-7.6-4.3c-0.4-0.8-0.6-1-0.6-1s7.1-2.2,8.3,4.1c0.2,1.2,0.2,2.2,0.1,3
						C139.9,183.1,139.8,182.5,139.7,181.8z"/>
				</g>
				<g>
					<path class="st41" d="M134.4,188.3c-0.3,0-0.5-0.2-0.5-0.5c-0.8-8.8-2.8-10.9-2.8-11c-0.1-0.1-0.2-0.3-0.1-0.5
						c0-0.2,0.2-0.3,0.4-0.4c0.1,0,3.7-1.1,6.4,0.5c1.4,0.8,2.3,2.2,2.7,4.1c0.4,2.2,0.1,4.1-1,5.4
						C137.6,188.2,134.5,188.3,134.4,188.3C134.4,188.3,134.4,188.3,134.4,188.3z M132.4,176.8c0.7,1.2,1.9,4.1,2.5,10.3
						c0.9-0.1,2.6-0.6,3.6-1.9c0.9-1.1,1.1-2.6,0.7-4.5c-0.3-1.6-1-2.7-2.1-3.4C135.5,176.4,133.4,176.6,132.4,176.8z"/>
				</g>
			</g>
			<g>
				<g>
					<path class="st39" d="M131.6,190.6c0,0,6,0,3.8-9.3c-1.7-7.6-6.6-6.7-8.5-6.1C127,175.2,130.3,179.3,131.6,190.6z"/>
				</g>
				<g class="st40">
					<path class="st41" d="M135.2,180.2c0.1,0.3,0.2,0.7,0.3,1c2.1,9.3-3.8,9.3-3.8,9.3c-0.2-1.6-0.4-3-0.7-4.4
						C131.5,186.2,135.4,185.8,135.2,180.2z"/>
				</g>
				<g>
					<path class="st41" d="M131.6,191.1c-0.3,0-0.5-0.2-0.5-0.5c-1.3-11-4.5-15.1-4.5-15.1c-0.1-0.1-0.1-0.3-0.1-0.5
						c0-0.2,0.2-0.3,0.3-0.4c1.1-0.4,3.3-0.9,5.4,0.3c1.8,1,3.1,3.1,3.8,6.2c0.8,3.7,0.6,6.5-0.8,8.2
						C133.8,191.1,131.7,191.1,131.6,191.1z M127.9,175.5c1,1.5,3.2,5.9,4.3,14.5c0.6-0.1,1.5-0.4,2.2-1.3c1.2-1.5,1.4-4,0.6-7.3
						c-0.6-2.8-1.7-4.6-3.3-5.5C130.3,175.1,128.9,175.2,127.9,175.5z"/>
				</g>
			</g>
		</g>
		<g>
			<g>
				<path class="st39" d="M111,206.6c-22.1,0-22.6-8.7-22-12.2c0-0.2,0.1-0.4,0.1-0.5c0.2-0.6,0.2-1.2,0.2-1.8
					c-0.1-4.8,0.6-25.1,21.6-25.1c21.1,0,21.8,20.2,21.6,25.1c0,0.6,0.1,1.2,0.2,1.8C133.6,196.8,134.4,206.6,111,206.6z"/>
			</g>
			<g>
				<path class="st41" d="M99.5,192.5c0.1-0.3,0.3-0.5,0.4-0.8c0.2-0.2,0.4-0.4,0.6-0.6c0.5-0.3,1.1-0.6,1.8-0.6c0.3,0,0.7,0,1,0.1
					c0.1,0,0.2,0,0.2,0.1c0.1,0,0.2,0.1,0.2,0.1c0.1,0.1,0.3,0.1,0.4,0.2c0.5,0.4,0.9,0.8,1.1,1.4c0.1,0.2,0,0.4-0.2,0.5
					c-0.1,0-0.2,0-0.3,0l0,0c-0.5-0.2-0.9-0.4-1.3-0.5c-0.4-0.1-0.7-0.2-1.1-0.2c-0.4,0-0.8,0.1-1.2,0.2c-0.4,0.1-0.9,0.3-1.4,0.4
					l0,0c-0.1,0-0.3,0-0.3-0.2C99.4,192.6,99.4,192.6,99.5,192.5z"/>
			</g>
			<g>
				<path class="st41" d="M122.2,192.8c-0.5-0.2-1-0.3-1.4-0.4c-0.4-0.1-0.8-0.2-1.2-0.2c-0.4,0-0.7,0.1-1.1,0.2
					c-0.4,0.1-0.8,0.3-1.3,0.5l0,0c-0.2,0.1-0.4,0-0.5-0.2c0-0.1,0-0.2,0-0.3c0.2-0.6,0.6-1,1.1-1.4c0.1-0.1,0.3-0.2,0.4-0.2
					c0.1,0,0.1-0.1,0.2-0.1c0.1,0,0.2-0.1,0.2-0.1c0.3-0.1,0.7-0.1,1-0.1c0.7,0,1.3,0.3,1.8,0.6c0.2,0.2,0.5,0.4,0.6,0.6
					c0.2,0.2,0.3,0.5,0.4,0.8c0,0.1,0,0.3-0.1,0.3C122.3,192.9,122.3,192.9,122.2,192.8L122.2,192.8z"/>
			</g>
			<g>
				<path class="st38" d="M132.9,193.9c-0.2-0.6-0.2-1.2-0.2-1.8c0.1-4.8-0.6-25.1-21.6-25.1c-21.1,0-21.8,20.2-21.6,25.1
					c0,0.6-0.1,1.2-0.2,1.8c0,0.2-0.1,0.3-0.1,0.5c2,0.5,5.3,0.6,5.7-4.3c0.5-7,6.1-7,6.1-7s8.2-0.6,6.8,14h3.4h3.4
					c-1.4-14.6,6.8-14,6.8-14s5.6,0,6.1,7c0.4,4.9,3.6,4.8,5.7,4.3C132.9,194.2,132.9,194.1,132.9,193.9z"/>
			</g>
			<g class="st45">
				<path class="st39" d="M111,167c-20.8,0-21.7,19.8-21.6,24.9c0.1-5.6,1.7-18.8,14.2-22.6c0.1,0,0.2,0,0.3,0.1
					c0.5,0.5,1.9,0.7,3.5,0.5c1.7-0.2,3-0.8,3.3-1.4c0-0.1,0.1-0.2,0.3-0.2c0,0,0,0,0,0c19.3,0,21.6,17,21.7,23.5
					C132.8,186.8,131.8,167,111,167z"/>
			</g>
			<g class="st40">
				<path class="st41" d="M132.9,193.9c-0.2-0.6-0.2-1.2-0.2-1.8c0.1-4.4-0.5-21.8-16.8-24.6c15.2,2.9,15.7,19.1,15.6,23.3
					c0,0.6,0.1,1.2,0.2,1.7c0.7,2.8,1.4,11.6-20.7,11.6c-20.9,0-21.4-7.9-20.8-11.1c0-0.2,0.1-0.4,0.1-0.5c0.1-0.6,0.2-1.2,0.2-1.7
					c-0.1-4.1,0.4-20.4,15.6-23.3c-16.3,2.9-16.9,20.2-16.8,24.6c0,0.6-0.1,1.2-0.2,1.8c0,0.2-0.1,0.3-0.1,0.5
					c-0.6,3.4-0.1,12.2,22,12.2C134.4,206.6,133.6,196.8,132.9,193.9z"/>
			</g>
			<g>
				<g>
					<path class="st44" d="M115.8,196.5c0,0-0.2,4-4.8,6.3c-2.4-1.2-3.6-2.8-4.2-4.1c-0.6-1.2-0.6-2.2-0.6-2.2H115.8z"/>
				</g>
				<g class="st40">
					<path class="st41" d="M111,196.5h-4.8c0,0,0,1,0.6,2.2c1.1,0.7,2.5,1.3,4.2,1.6c1.7-0.2,3.1-0.9,4.2-1.6
						c0.6-1.2,0.6-2.2,0.6-2.2H111z"/>
				</g>
				<g>
					<path class="st41" d="M111,196.4h3.4c0,0-0.1,2.8-3.4,4.4c-3.3-1.6-3.4-4.4-3.4-4.4H111z"/>
				</g>
				<g>
					<path class="st41" d="M111,203.3c-0.1,0-0.2,0-0.2-0.1c-4.9-2.4-5.1-6.5-5.1-6.7c0-0.1,0-0.3,0.2-0.4c0.1-0.1,0.2-0.2,0.4-0.2
						h9.7c0.1,0,0.3,0.1,0.4,0.2c0.1,0.1,0.2,0.3,0.2,0.4c0,0.2-0.2,4.4-5.1,6.7C111.2,203.2,111.1,203.3,111,203.3z M106.8,197
						c0.2,1.1,1.1,3.5,4.2,5.1c3.1-1.6,4-4,4.2-5.1H106.8z"/>
				</g>
			</g>
			<g>
				<g>
					<path class="st44" d="M111,197.8c3-0.3,4.8-1.4,4.8-1.4c-1.2-1.9-4.8-2.9-4.8-2.9s-3.7,1.1-4.8,2.9
						C106.2,196.5,108,197.6,111,197.8z"/>
				</g>
				<g class="st45">
					<path class="st39" d="M111,194.7c0,0,2.7,0.8,4.2,2.1c0.4-0.2,0.7-0.3,0.7-0.3c-1.2-1.9-4.8-2.9-4.8-2.9s-3.7,1.1-4.8,2.9
						c0,0,0.2,0.1,0.7,0.3C108.3,195.4,111,194.7,111,194.7z"/>
				</g>
				<g>
					<path class="st41" d="M111,198.4C111,198.4,111,198.4,111,198.4c-3.1-0.3-5-1.4-5.1-1.4c-0.1-0.1-0.2-0.2-0.2-0.3
						c0-0.1,0-0.3,0.1-0.4c1.3-2,5-3.1,5.2-3.1c0.1,0,0.2,0,0.3,0c0.2,0,3.9,1.1,5.2,3.1c0.1,0.1,0.1,0.3,0.1,0.4
						c0,0.1-0.1,0.3-0.2,0.3C116,197,114.1,198.1,111,198.4C111,198.4,111,198.4,111,198.4z M107,196.3c0.7,0.3,2.1,0.8,4,1
						c1.9-0.2,3.3-0.7,4-1c-1-1.1-3.1-1.9-4-2.2C110.4,194.3,108.1,195.1,107,196.3z"/>
				</g>
			</g>
			<g>
				<path class="st41" d="M111,207.2c-10.8,0-17.8-2-20.9-6.1c-2.2-2.8-1.8-5.8-1.4-7.3c0.1-0.6,0.2-1.1,0.2-1.7
					c-0.1-3,0.1-13.2,6.5-19.8c3.8-3.9,9-5.9,15.7-5.9c6.6,0,11.9,2,15.7,5.9c6.4,6.6,6.6,16.8,6.5,19.8c0,0.5,0.1,1.1,0.2,1.7
					c0.4,1.5,0.7,4.5-1.4,7.3C128.8,205.1,121.8,207.2,111,207.2z M111,167.5c-6.3,0-11.3,1.9-14.9,5.5c-6.1,6.3-6.3,16.1-6.2,19
					c0,0.6-0.1,1.3-0.2,2c-0.3,1.3-0.6,3.9,1.3,6.4c1.3,1.7,3.4,3,6.2,3.9c3.5,1.2,8.2,1.8,13.9,1.8c5.7,0,10.4-0.6,13.9-1.8
					c2.8-0.9,4.9-2.3,6.2-3.9c1.9-2.4,1.6-5,1.3-6.4c-0.2-0.7-0.3-1.3-0.2-2c0.1-2.9-0.1-12.7-6.2-19
					C122.3,169.4,117.3,167.5,111,167.5z"/>
			</g>
		</g>
	</g>
</g>
<g>
	<path class="st39" d="M35.6,34.4c2.4,0.5,3,2,3,3.3c0,2.1-1.5,3.6-4.7,3.6c-3.3,0-4.7-1.7-4.7-2.9c0-0.6,0.5-1.1,1.1-1.1
		c1.4,0,1,2.1,3.7,2.1c1.3,0,2.1-0.7,2.1-1.5c0-0.5-0.2-1-1.1-1.2L32,35.9c-2.3-0.6-2.8-1.9-2.8-3.1c0-2.5,2.3-3.5,4.5-3.5
		c2,0,4.4,1.1,4.4,2.7c0,0.7-0.6,1-1.2,1c-1.2,0-1-1.7-3.4-1.7c-1.2,0-1.9,0.6-1.9,1.4c0,0.8,0.9,1,1.8,1.2L35.6,34.4z"/>
	<path class="st39" d="M44.4,36.4c-0.6,0-1.1-0.5-1.1-1.1c0-0.6,0.5-1.1,1.1-1.1c0.6,0,1.1,0.5,1.1,1.1
		C45.6,35.9,45.1,36.4,44.4,36.4 M44.4,33c-1.2,0-2.3,1-2.3,2.3c0,1.3,1,2.3,2.3,2.3c1.2,0,2.3-1,2.3-2.3C46.7,34,45.7,33,44.4,33"
		/>
	<path class="st39" d="M42.1,28.5c-0.4,0.4-1.2,0.4-1.6,0c-0.4-0.4-0.4-1.2,0-1.6c0.4-0.4,1.2-0.4,1.6,0
		C42.6,27.4,42.6,28.1,42.1,28.5 M42.9,26.1c-0.9-0.9-2.3-0.9-3.2,0c-0.9,0.9-0.9,2.3,0,3.2c0.9,0.9,2.3,0.9,3.2,0
		C43.8,28.5,43.8,27,42.9,26.1"/>
	<path class="st39" d="M33.9,25.8c-0.6,0-1.1-0.5-1.1-1.1c0-0.6,0.5-1.1,1.1-1.1c0.6,0,1.1,0.5,1.1,1.1C35,25.2,34.5,25.8,33.9,25.8
		 M33.9,22.3c-1.2,0-2.3,1-2.3,2.3c0,1.3,1,2.3,2.3,2.3c1.2,0,2.3-1,2.3-2.3C36.1,23.4,35.1,22.3,33.9,22.3"/>
	<path class="st39" d="M27.2,28.5c-0.4,0.4-1.2,0.4-1.6,0c-0.4-0.4-0.4-1.2,0-1.6c0.4-0.4,1.2-0.4,1.6,0
		C27.6,27.4,27.6,28.1,27.2,28.5 M28,26.1c-0.9-0.9-2.3-0.9-3.2,0c-0.9,0.9-0.9,2.3,0,3.2c0.9,0.9,2.3,0.9,3.2,0
		C28.8,28.5,28.8,27,28,26.1"/>
	<path class="st39" d="M23.3,36.4c-0.6,0-1.1-0.5-1.1-1.1c0-0.6,0.5-1.1,1.1-1.1c0.6,0,1.1,0.5,1.1,1.1
		C24.4,35.9,23.9,36.4,23.3,36.4 M23.3,33C22,33,21,34,21,35.3c0,1.3,1,2.3,2.3,2.3c1.2,0,2.3-1,2.3-2.3C25.5,34,24.5,33,23.3,33"/>
	<path class="st39" d="M27.2,43.6c-0.4,0.4-1.2,0.4-1.6,0c-0.4-0.4-0.4-1.2,0-1.6c0.4-0.4,1.2-0.4,1.6,0
		C27.6,42.5,27.6,43.2,27.2,43.6 M28,41.2c-0.9-0.9-2.3-0.9-3.2,0c-0.9,0.9-0.9,2.3,0,3.2c0.9,0.9,2.3,0.9,3.2,0
		C28.8,43.6,28.8,42.1,28,41.2"/>
	<path class="st39" d="M42.1,43.6c-0.4,0.4-1.2,0.4-1.6,0c-0.4-0.4-0.4-1.2,0-1.6c0.4-0.4,1.2-0.4,1.6,0
		C42.6,42.5,42.6,43.2,42.1,43.6 M42.9,41.2c-0.9-0.9-2.3-0.9-3.2,0c-0.9,0.9-0.9,2.3,0,3.2c0.9,0.9,2.3,0.9,3.2,0
		C43.8,43.6,43.8,42.1,42.9,41.2"/>
	<path class="st39" d="M44.7,30.8c0.2,0.6,0,1.2-0.6,1.5c-0.6,0.2-1.2,0-1.5-0.6c-0.2-0.6,0-1.2,0.6-1.5
		C43.8,29.9,44.4,30.2,44.7,30.8"/>
	<path class="st39" d="M38.3,24.4c0.6,0.2,0.9,0.9,0.6,1.5c-0.2,0.6-0.9,0.9-1.5,0.6c-0.6-0.2-0.9-0.9-0.6-1.5
		C37.1,24.4,37.8,24.1,38.3,24.4"/>
	<path class="st39" d="M29.4,24.4c0.6-0.2,1.2,0,1.5,0.6c0.2,0.6,0,1.2-0.6,1.5c-0.6,0.2-1.2,0-1.5-0.6
		C28.5,25.3,28.8,24.6,29.4,24.4"/>
	<path class="st39" d="M23,30.8c0.2-0.6,0.9-0.9,1.5-0.6c0.6,0.2,0.9,0.9,0.6,1.5c-0.2,0.6-0.9,0.9-1.5,0.6
		C23.1,32,22.8,31.4,23,30.8"/>
	<path class="st39" d="M23.1,39.8c-0.2-0.6,0-1.2,0.6-1.5c0.6-0.2,1.2,0,1.5,0.6c0.2,0.6,0,1.2-0.6,1.5C24,40.7,23.3,40.4,23.1,39.8
		"/>
	<path class="st39" d="M29.4,46.2c-0.6-0.2-0.9-0.9-0.6-1.5c0.2-0.6,0.9-0.9,1.5-0.6c0.6,0.2,0.9,0.9,0.6,1.5
		C30.7,46.2,30,46.5,29.4,46.2"/>
	<path class="st39" d="M38.4,46.2c-0.6,0.2-1.2,0-1.5-0.6c-0.2-0.6,0-1.2,0.6-1.5c0.6-0.2,1.2,0,1.5,0.6
		C39.2,45.3,39,45.9,38.4,46.2"/>
	<path class="st39" d="M44.7,39.7c-0.2,0.6-0.9,0.9-1.5,0.6c-0.6-0.2-0.9-0.9-0.6-1.5c0.2-0.6,0.9-0.9,1.5-0.6
		C44.7,38.5,44.9,39.2,44.7,39.7"/>
	<path class="st39" d="M33.9,47.1L33.9,47.1c-0.6,0-1.1-0.5-1.1-1.1c0-0.6,0.5-1.1,1.1-1.1c0.6,0,1.1,0.5,1.1,1.1
		C35,46.6,34.5,47.1,33.9,47.1 M33.9,43.7L33.9,43.7c-1.2,0-2.3,1-2.3,2.3s1,2.3,2.3,2.3c1.2,0,2.3-1,2.3-2.3S35.1,43.7,33.9,43.7"
		/>
	<path class="st39" d="M57.1,29.9c1.4,0.3,1.7,1.1,1.7,1.9c0,1.2-0.9,2.1-2.7,2.1c-1.9,0-2.8-1-2.8-1.7c0-0.4,0.3-0.6,0.6-0.6
		c0.8,0,0.6,1.2,2.1,1.2c0.8,0,1.2-0.4,1.2-0.9c0-0.3-0.1-0.6-0.6-0.7l-1.7-0.4c-1.4-0.4-1.6-1.1-1.6-1.8c0-1.5,1.4-2,2.6-2
		c1.2,0,2.6,0.7,2.6,1.6c0,0.4-0.3,0.6-0.7,0.6c-0.7,0-0.6-1-2-1c-0.7,0-1.1,0.3-1.1,0.8c0,0.5,0.5,0.6,1,0.7L57.1,29.9z"/>
	<path class="st39" d="M62.8,31.4c-0.1,0.1-0.4,0.2-0.6,0.2l-0.5,0.1c-0.6,0.1-0.9,0.3-0.9,0.7c0,0.3,0.3,0.6,0.7,0.6
		c0.7,0,1.2-0.5,1.2-1V31.4z M64.1,32.4c0,0.6,0.1,0.7,0.1,0.9c0,0.3-0.3,0.5-0.6,0.5c-0.6,0-0.8-0.4-0.8-0.8
		c-0.5,0.6-1.1,0.8-1.8,0.8c-0.8,0-1.5-0.5-1.5-1.4c0-1.1,0.8-1.4,1.9-1.6l0.8-0.1c0.3,0,0.6-0.1,0.6-0.5s-0.4-0.6-0.8-0.6
		c-1,0-1,0.7-1.5,0.7c-0.3,0-0.6-0.2-0.6-0.5c0-0.5,0.8-1.2,2.1-1.2c1.3,0,2.2,0.4,2.2,1.4V32.4z"/>
	<path class="st39" d="M65.1,29.4c0-0.4,0.3-0.6,0.6-0.6c0.3,0,0.6,0.2,0.6,0.6v0.5h0c0.2-0.6,0.5-1.1,1.1-1.1
		c0.4,0,0.7,0.3,0.7,0.7c0,0.5-0.3,0.7-0.7,0.7h-0.2c-0.5,0-0.8,0.4-0.8,1.5v1.6c0,0.4-0.1,0.7-0.7,0.7c-0.5,0-0.7-0.3-0.7-0.7V29.4
		z"/>
	<path class="st39" d="M71.1,32.4L71.1,32.4l0.8-3.1c0.1-0.3,0.3-0.6,0.6-0.6c0.5,0,0.7,0.4,0.7,0.6c0,0.1,0,0.2-0.1,0.4l-1.5,4.4
		c-0.3,0.9-0.7,1.4-1.5,1.4c-0.6,0-0.8-0.3-0.8-0.6c0-0.4,0.3-0.5,0.6-0.5H70c0.2,0,0.4,0,0.5-0.4l-1.4-4c-0.1-0.3-0.2-0.5-0.2-0.6
		c0-0.4,0.3-0.6,0.7-0.6c0.4,0,0.6,0.2,0.7,0.5L71.1,32.4z"/>
	<path class="st39" d="M77.8,28.6L77.8,28.6l-0.9,2.7h1.8L77.8,28.6z M76.9,27.4c0.1-0.3,0.4-0.5,0.7-0.5H78c0.3,0,0.6,0.1,0.8,0.6
		l1.8,5.1c0.1,0.1,0.1,0.4,0.1,0.6c0,0.4-0.3,0.7-0.7,0.7c-0.3,0-0.6-0.1-0.7-0.4L79,32.3h-2.4l-0.4,1.1c-0.1,0.3-0.3,0.4-0.7,0.4
		c-0.4,0-0.7-0.3-0.7-0.7c0-0.2,0.1-0.4,0.1-0.6L76.9,27.4z"/>
	<path class="st39" d="M84,28.8c1.1,0,2,0.6,2,1.3c0,0.4-0.3,0.6-0.6,0.6c-0.6,0-0.4-0.8-1.4-0.8c-0.5,0-1.1,0.4-1.1,1.6
		c0,0.8,0.4,1.4,1.1,1.4c0.9,0,0.7-0.9,1.4-0.9c0.3,0,0.6,0.2,0.6,0.5c0,0.6-0.7,1.4-2,1.4c-1.6,0-2.4-1-2.4-2.4
		C81.5,29.8,82.4,28.8,84,28.8"/>
	<path class="st39" d="M90,31.4c-0.1,0.1-0.4,0.2-0.6,0.2l-0.5,0.1c-0.6,0.1-0.9,0.3-0.9,0.7c0,0.3,0.3,0.6,0.7,0.6
		c0.7,0,1.2-0.5,1.2-1V31.4z M91.3,32.4c0,0.6,0.1,0.7,0.1,0.9c0,0.3-0.3,0.5-0.6,0.5c-0.6,0-0.8-0.4-0.8-0.8
		c-0.5,0.6-1.1,0.8-1.8,0.8c-0.8,0-1.5-0.5-1.5-1.4c0-1.1,0.8-1.4,1.9-1.6l0.8-0.1c0.3,0,0.6-0.1,0.6-0.5s-0.4-0.6-0.8-0.6
		c-1,0-1,0.7-1.5,0.7c-0.3,0-0.6-0.2-0.6-0.5c0-0.5,0.8-1.2,2.1-1.2c1.3,0,2.2,0.4,2.2,1.4V32.4z"/>
	<path class="st39" d="M94.6,32.8c0.8,0,1.1-0.7,1.1-1.5c0-0.7-0.3-1.5-1.1-1.5c-0.9,0-1.1,0.9-1.1,1.5
		C93.6,32.1,93.9,32.8,94.6,32.8 M97,33.2c0,0.4-0.2,0.6-0.6,0.6c-0.4,0-0.6-0.2-0.6-0.6V33h0c-0.2,0.6-0.8,0.8-1.4,0.8
		c-1.1,0-2.1-0.8-2.1-2.6c0-1.3,0.6-2.5,2.1-2.5c0.6,0,1.1,0.2,1.3,0.7h0v-1.8c0-0.4,0.3-0.7,0.7-0.7c0.4,0,0.7,0.2,0.7,0.7V33.2z"
		/>
	<path class="st39" d="M101.4,30.8c-0.1-0.6-0.5-1.1-1.1-1.1c-0.7,0-1.1,0.4-1.2,1.1H101.4z M99.1,31.5c0,0.7,0.5,1.2,1.2,1.2
		c1,0,1-0.7,1.5-0.7c0.3,0,0.5,0.3,0.5,0.5c0,0.8-1.3,1.2-2.1,1.2c-1.9,0-2.6-1.3-2.6-2.4c0-1.6,0.9-2.6,2.5-2.6
		c1.5,0,2.4,1.1,2.4,2.2c0,0.5-0.1,0.6-0.6,0.6H99.1z"/>
	<path class="st39" d="M103.4,29.4c0-0.4,0.2-0.7,0.6-0.7c0.4,0,0.6,0.3,0.6,0.7v0.2h0c0.3-0.5,0.9-0.8,1.6-0.8c0.5,0,1,0.2,1.3,0.8
		c0.4-0.5,0.9-0.8,1.6-0.8c0.9,0,1.7,0.4,1.7,1.6v2.8c0,0.4-0.1,0.7-0.7,0.7c-0.5,0-0.7-0.3-0.7-0.7v-2.4c0-0.5-0.2-0.9-0.7-0.9
		c-0.5,0-1,0.4-1,1v2.2c0,0.4-0.1,0.7-0.7,0.7c-0.5,0-0.7-0.3-0.7-0.7v-2.4c0-0.5-0.2-0.9-0.7-0.9c-0.5,0-1,0.4-1,1v2.2
		c0,0.4-0.1,0.7-0.7,0.7s-0.7-0.3-0.7-0.7V29.4z"/>
	<path class="st39" d="M113.8,32.4L113.8,32.4l0.8-3.1c0.1-0.3,0.3-0.6,0.6-0.6c0.5,0,0.7,0.4,0.7,0.6c0,0.1,0,0.2-0.1,0.4l-1.5,4.4
		c-0.3,0.9-0.7,1.4-1.5,1.4c-0.6,0-0.8-0.3-0.8-0.6c0-0.4,0.3-0.5,0.6-0.5h0.1c0.2,0,0.4,0,0.5-0.4l-1.4-4c-0.1-0.3-0.2-0.5-0.2-0.6
		c0-0.4,0.3-0.6,0.6-0.6c0.4,0,0.6,0.2,0.7,0.5L113.8,32.4z"/>
	<polygon class="st39" points="56.5,38.5 54,38.5 54,39.5 56.3,39.5 56.3,40.3 54,40.3 54,41.5 56.6,41.5 56.6,42.3 53.1,42.3 
		53.1,37.7 56.5,37.7 	"/>
	<path class="st39" d="M59.4,41.4c0.1-0.2,0.2-0.4,0.2-0.7c0-0.4-0.1-0.7-0.3-0.9c-0.1-0.1-0.3-0.2-0.4-0.2c-0.3,0-0.5,0.1-0.6,0.3
		c-0.1,0.2-0.2,0.4-0.2,0.7c0,0.3,0.1,0.6,0.2,0.8c0.1,0.2,0.3,0.3,0.6,0.3C59.1,41.6,59.3,41.6,59.4,41.4 M59.2,38.9
		c0.2,0.1,0.3,0.2,0.4,0.4v-1.6h0.9v4.6h-0.9v-0.5c-0.1,0.2-0.3,0.4-0.4,0.4c-0.2,0.1-0.4,0.1-0.6,0.1c-0.4,0-0.7-0.2-1-0.5
		c-0.3-0.3-0.4-0.7-0.4-1.2c0-0.6,0.1-1,0.4-1.4c0.3-0.3,0.6-0.5,1.1-0.5C58.9,38.8,59.1,38.8,59.2,38.9"/>
	<path class="st39" d="M62.3,38.9v2.1c0,0.2,0,0.3,0.1,0.4c0.1,0.2,0.2,0.3,0.5,0.3c0.3,0,0.5-0.1,0.6-0.4c0.1-0.1,0.1-0.3,0.1-0.5
		v-1.9h0.9v3.4h-0.9v-0.5c0,0,0,0-0.1,0.1c0,0.1-0.1,0.1-0.1,0.1c-0.1,0.1-0.3,0.2-0.4,0.3c-0.1,0-0.3,0.1-0.5,0.1
		c-0.5,0-0.8-0.2-1-0.5c-0.1-0.2-0.1-0.5-0.1-0.9v-2.1H62.3z"/>
	<path class="st39" d="M65.2,39.5v-0.6h0.5v-1h0.9v1h0.6v0.6h-0.6v1.8c0,0.1,0,0.2,0.1,0.3c0,0,0.1,0.1,0.3,0.1c0,0,0.1,0,0.1,0
		c0,0,0.1,0,0.1,0v0.7l-0.4,0c-0.4,0-0.7-0.1-0.9-0.2c-0.1-0.1-0.1-0.3-0.1-0.5v-2.1H65.2z"/>
	<path class="st39" d="M69.7,40.6c-0.1,0-0.1,0.1-0.2,0.1c-0.1,0-0.1,0-0.2,0.1l-0.2,0c-0.2,0-0.3,0.1-0.4,0.1
		c-0.1,0.1-0.2,0.2-0.2,0.4c0,0.2,0,0.3,0.1,0.3c0.1,0.1,0.2,0.1,0.3,0.1c0.2,0,0.4-0.1,0.5-0.2c0.2-0.1,0.2-0.3,0.3-0.6V40.6z
		 M69.1,40.2c0.2,0,0.3,0,0.4-0.1c0.1-0.1,0.2-0.1,0.2-0.3c0-0.1,0-0.2-0.1-0.3c-0.1-0.1-0.2-0.1-0.4-0.1c-0.2,0-0.4,0.1-0.5,0.2
		c-0.1,0.1-0.1,0.2-0.1,0.3h-0.9c0-0.3,0.1-0.5,0.3-0.7c0.2-0.3,0.6-0.5,1.2-0.5c0.4,0,0.7,0.1,1,0.2c0.3,0.1,0.4,0.4,0.4,0.8v1.6
		c0,0.1,0,0.2,0,0.4c0,0.1,0,0.2,0.1,0.2c0,0,0.1,0.1,0.1,0.1v0.1h-1c0-0.1,0-0.1-0.1-0.2c0-0.1,0-0.1,0-0.2
		c-0.1,0.1-0.3,0.2-0.4,0.3c-0.2,0.1-0.4,0.2-0.7,0.2c-0.3,0-0.6-0.1-0.8-0.3c-0.2-0.2-0.3-0.4-0.3-0.8c0-0.4,0.2-0.7,0.5-0.9
		c0.2-0.1,0.4-0.2,0.8-0.2L69.1,40.2z"/>
	<path class="st39" d="M71.5,38.9h0.9v3.4h-0.9V38.9z M72.4,38.5h-0.9v-0.8h0.9V38.5z"/>
	<path class="st39" d="M76.2,39.1c0.2,0.2,0.3,0.5,0.3,0.9v2.3h-0.9v-2.1c0-0.2,0-0.3-0.1-0.4c-0.1-0.2-0.3-0.3-0.5-0.3
		c-0.3,0-0.5,0.1-0.6,0.4c-0.1,0.1-0.1,0.3-0.1,0.5v1.9h-0.9v-3.4h0.9v0.5c0.1-0.2,0.2-0.3,0.3-0.4c0.2-0.1,0.4-0.2,0.7-0.2
		C75.7,38.8,75.9,38.9,76.2,39.1"/>
	<path class="st39" d="M81.7,38.9c0.1,0.1,0.3,0.2,0.4,0.3c0.1,0.1,0.2,0.3,0.2,0.4c0,0.1,0,0.3,0,0.5l0,2.2h-0.9v-2.2
		c0-0.1,0-0.2-0.1-0.3c-0.1-0.2-0.2-0.2-0.4-0.2c-0.2,0-0.4,0.1-0.5,0.3c0,0.1-0.1,0.2-0.1,0.4v2h-0.9v-2c0-0.2,0-0.4-0.1-0.4
		c-0.1-0.2-0.2-0.2-0.4-0.2c-0.3,0-0.4,0.1-0.5,0.2c0,0.1-0.1,0.2-0.1,0.4v2.1h-0.9v-3.4h0.9v0.5c0.1-0.2,0.2-0.3,0.3-0.4
		c0.2-0.1,0.4-0.2,0.7-0.2c0.3,0,0.5,0.1,0.6,0.2c0.1,0.1,0.2,0.2,0.3,0.4c0.1-0.2,0.3-0.3,0.4-0.4c0.2-0.1,0.4-0.1,0.6-0.1
		C81.4,38.8,81.6,38.8,81.7,38.9"/>
	<path class="st39" d="M84.2,39.7C84.1,39.8,84,40,84,40.2h1.5c0-0.2-0.1-0.4-0.2-0.5c-0.1-0.1-0.3-0.2-0.5-0.2
		C84.5,39.5,84.3,39.6,84.2,39.7 M85.5,38.9c0.2,0.1,0.4,0.3,0.6,0.5c0.1,0.2,0.2,0.4,0.3,0.7c0,0.2,0,0.4,0,0.7h-2.5
		c0,0.3,0.1,0.6,0.4,0.7c0.1,0.1,0.3,0.1,0.5,0.1c0.2,0,0.4-0.1,0.5-0.2c0.1-0.1,0.1-0.1,0.2-0.2h0.9c0,0.2-0.1,0.4-0.3,0.6
		c-0.3,0.3-0.7,0.5-1.3,0.5c-0.5,0-0.9-0.1-1.2-0.4c-0.3-0.3-0.5-0.7-0.5-1.4c0-0.6,0.2-1,0.5-1.4c0.3-0.3,0.7-0.5,1.2-0.5
		C85,38.8,85.3,38.8,85.5,38.9"/>
	<path class="st39" d="M89.8,39.1c0.2,0.2,0.3,0.5,0.3,0.9v2.3h-0.9v-2.1c0-0.2,0-0.3-0.1-0.4c-0.1-0.2-0.3-0.3-0.5-0.3
		c-0.3,0-0.5,0.1-0.6,0.4c-0.1,0.1-0.1,0.3-0.1,0.5v1.9H87v-3.4h0.9v0.5c0.1-0.2,0.2-0.3,0.3-0.4c0.2-0.1,0.4-0.2,0.7-0.2
		C89.2,38.8,89.5,38.9,89.8,39.1"/>
	<path class="st39" d="M90.7,39.5v-0.6h0.5v-1h0.9v1h0.6v0.6h-0.6v1.8c0,0.1,0,0.2,0.1,0.3c0,0,0.1,0.1,0.3,0.1c0,0,0.1,0,0.1,0
		c0,0,0.1,0,0.1,0v0.7l-0.4,0c-0.4,0-0.7-0.1-0.9-0.2c-0.1-0.1-0.1-0.3-0.1-0.5v-2.1H90.7z"/>
	<path class="st39" d="M97.7,38.6c-0.1-0.1-0.3-0.2-0.5-0.2h-0.9v1.4h0.9c0.2,0,0.4-0.1,0.5-0.2c0.1-0.1,0.2-0.3,0.2-0.5
		S97.8,38.7,97.7,38.6 M98.4,40.3c-0.3,0.2-0.7,0.3-1.2,0.3h-1v1.7h-1v-4.6h2c0.5,0,0.8,0.1,1.1,0.4c0.3,0.2,0.4,0.6,0.4,1.1
		C98.8,39.7,98.7,40.1,98.4,40.3"/>
	<rect x="99.7" y="37.7" class="st39" width="0.9" height="4.6"/>
	<path class="st39" d="M103.5,40.6c-0.1,0-0.1,0.1-0.2,0.1c-0.1,0-0.1,0-0.2,0.1l-0.2,0c-0.2,0-0.3,0.1-0.4,0.1
		c-0.1,0.1-0.2,0.2-0.2,0.4c0,0.2,0,0.3,0.1,0.3c0.1,0.1,0.2,0.1,0.3,0.1c0.2,0,0.4-0.1,0.5-0.2c0.2-0.1,0.2-0.3,0.3-0.6V40.6z
		 M103,40.2c0.2,0,0.3,0,0.4-0.1c0.1-0.1,0.2-0.1,0.2-0.3c0-0.1,0-0.2-0.1-0.3c-0.1-0.1-0.2-0.1-0.4-0.1c-0.2,0-0.4,0.1-0.5,0.2
		c-0.1,0.1-0.1,0.2-0.1,0.3h-0.9c0-0.3,0.1-0.5,0.3-0.7c0.2-0.3,0.6-0.5,1.2-0.5c0.4,0,0.7,0.1,1,0.2c0.3,0.1,0.4,0.4,0.4,0.8v1.6
		c0,0.1,0,0.2,0,0.4c0,0.1,0,0.2,0.1,0.2c0,0,0.1,0.1,0.1,0.1v0.1h-1c0-0.1,0-0.1-0.1-0.2c0-0.1,0-0.1,0-0.2
		c-0.1,0.1-0.3,0.2-0.4,0.3c-0.2,0.1-0.4,0.2-0.7,0.2c-0.3,0-0.6-0.1-0.8-0.3c-0.2-0.2-0.3-0.4-0.3-0.8c0-0.4,0.2-0.7,0.5-0.9
		c0.2-0.1,0.4-0.2,0.8-0.2L103,40.2z"/>
	<path class="st39" d="M108.1,39.1c0.2,0.2,0.3,0.5,0.3,0.9v2.3h-0.9v-2.1c0-0.2,0-0.3-0.1-0.4c-0.1-0.2-0.3-0.3-0.5-0.3
		c-0.3,0-0.5,0.1-0.6,0.4c-0.1,0.1-0.1,0.3-0.1,0.5v1.9h-0.9v-3.4h0.9v0.5c0.1-0.2,0.2-0.3,0.3-0.4c0.2-0.1,0.4-0.2,0.7-0.2
		C107.5,38.8,107.8,38.9,108.1,39.1"/>
	<path class="st39" d="M110.3,39.7c-0.1,0.1-0.2,0.3-0.2,0.5h1.5c0-0.2-0.1-0.4-0.2-0.5c-0.1-0.1-0.3-0.2-0.5-0.2
		C110.6,39.5,110.4,39.6,110.3,39.7 M111.6,38.9c0.2,0.1,0.4,0.3,0.6,0.5c0.1,0.2,0.2,0.4,0.3,0.7c0,0.2,0,0.4,0,0.7H110
		c0,0.3,0.1,0.6,0.4,0.7c0.1,0.1,0.3,0.1,0.5,0.1c0.2,0,0.4-0.1,0.5-0.2c0.1-0.1,0.1-0.1,0.2-0.2h0.9c0,0.2-0.1,0.4-0.3,0.6
		c-0.3,0.3-0.7,0.5-1.3,0.5c-0.5,0-0.9-0.1-1.2-0.4c-0.3-0.3-0.5-0.7-0.5-1.4c0-0.6,0.2-1,0.5-1.4c0.3-0.3,0.7-0.5,1.2-0.5
		C111.1,38.8,111.3,38.8,111.6,38.9"/>
	<path class="st39" d="M112.7,39.5v-0.6h0.5v-1h0.9v1h0.6v0.6h-0.6v1.8c0,0.1,0,0.2,0.1,0.3c0,0,0.1,0.1,0.3,0.1c0,0,0.1,0,0.1,0
		s0.1,0,0.1,0v0.7l-0.4,0c-0.4,0-0.7-0.1-0.9-0.2c-0.1-0.1-0.1-0.3-0.1-0.5v-2.1H112.7z"/>
</g>
<g>
	<g>
		<path class="st47" d="M33.9,87.4c0-1.5,0.8-2,2-2h5.3c2.9,0,5.2,1.4,5.2,4.8c0,2.8-1.9,4.8-5.2,4.8h-3.8v4.1c0,1-0.7,1.7-1.7,1.7
			s-1.7-0.7-1.7-1.7V87.4z M37.3,92.4h3.2c1.4,0,2.4-0.8,2.4-2.1c0-1.5-1.1-2.1-2.8-2.1h-2.9V92.4z"/>
		<path class="st47" d="M48.5,86.7c0-1,0.6-1.5,1.5-1.5s1.5,0.5,1.5,1.5v12.6c0,1-0.6,1.5-1.5,1.5s-1.5-0.5-1.5-1.5V86.7z"/>
		<path class="st47" d="M64.3,97.6c0,1.3,0.3,1.6,0.3,2.1c0,0.7-0.7,1.2-1.4,1.2c-1.3,0-1.8-0.8-1.8-1.8c-1.2,1.3-2.6,1.8-4.2,1.8
			c-1.7,0-3.5-1.2-3.5-3.1c0-2.5,1.9-3.3,4.3-3.5l1.9-0.2c0.7-0.1,1.3-0.3,1.3-1.1s-0.9-1.3-1.9-1.3c-2.3,0-2.3,1.7-3.5,1.7
			c-0.8,0-1.3-0.5-1.3-1.2c0-1.2,1.7-2.8,4.9-2.8c2.9,0,5,0.9,5,3.1V97.6z M61.3,95.4c-0.3,0.3-1,0.4-1.3,0.5L58.8,96
			c-1.3,0.2-2,0.6-2,1.5c0,0.7,0.7,1.3,1.7,1.3c1.7,0,2.7-1.1,2.7-2.2V95.4z"/>
		<path class="st47" d="M71,97.6L71,97.6l1.9-6.9c0.2-0.8,0.6-1.4,1.5-1.4c1.2,0,1.6,1,1.6,1.4c0,0.3-0.1,0.6-0.2,1l-3.5,10.1
			c-0.7,2.1-1.6,3.2-3.5,3.2c-1.4,0-1.9-0.7-1.9-1.4c0-0.8,0.6-1.2,1.4-1.2h0.3c0.4,0,0.8,0,1.1-1l-3.2-9.1
			c-0.3-0.7-0.4-1.1-0.4-1.4c0-0.8,0.7-1.5,1.5-1.5s1.4,0.5,1.6,1.2L71,97.6z"/>
		<path class="st47" d="M81.2,86.2c0.3-0.8,0.8-1,1.7-1h0.8c0.8,0,1.5,0.2,1.8,1.3L89.7,98c0.1,0.3,0.3,0.9,0.3,1.3
			c0,0.8-0.7,1.5-1.6,1.5c-0.8,0-1.3-0.3-1.6-0.9L86,97.4h-5.5l-0.9,2.5c-0.2,0.7-0.7,0.9-1.5,0.9c-0.9,0-1.6-0.6-1.6-1.5
			c0-0.4,0.2-1,0.3-1.3L81.2,86.2z M83.3,88.9L83.3,88.9L81.2,95h4L83.3,88.9z"/>
		<path class="st47" d="M91.6,90.7c0-0.9,0.6-1.4,1.4-1.4s1.4,0.5,1.4,1.4v1.2h0c0.4-1.3,1-2.6,2.5-2.6c1,0,1.7,0.6,1.7,1.5
			c0,1.1-0.8,1.5-1.5,1.5h-0.5c-1.2,0-1.9,0.9-1.9,3.4v3.6c0,0.8-0.3,1.5-1.5,1.5s-1.5-0.7-1.5-1.5V90.7z"/>
		<path class="st47" d="M102.6,95.6c0,1.6,1,2.8,2.8,2.8c2.3,0,2.3-1.5,3.5-1.5c0.7,0,1.3,0.6,1.3,1.2c0,1.8-3,2.7-4.8,2.7
			c-4.3,0-5.9-2.9-5.9-5.6c0-3.6,2.2-6,5.8-6c3.5,0,5.5,2.5,5.5,5c0,1-0.3,1.3-1.3,1.3H102.6z M108,93.9c-0.2-1.4-1.2-2.4-2.6-2.4
			c-1.5,0-2.5,0.9-2.8,2.4H108z"/>
		<path class="st47" d="M123.1,97.6c0,1.3,0.3,1.6,0.3,2.1c0,0.7-0.7,1.2-1.4,1.2c-1.3,0-1.8-0.8-1.8-1.8c-1.2,1.3-2.6,1.8-4.2,1.8
			c-1.7,0-3.5-1.2-3.5-3.1c0-2.5,1.9-3.3,4.3-3.5l1.9-0.2c0.7-0.1,1.3-0.3,1.3-1.1s-0.9-1.3-1.9-1.3c-2.3,0-2.3,1.7-3.5,1.7
			c-0.8,0-1.3-0.5-1.3-1.2c0-1.2,1.7-2.8,4.9-2.8c2.9,0,5,0.9,5,3.1V97.6z M120,95.4c-0.3,0.3-1,0.4-1.3,0.5l-1.1,0.2
			c-1.3,0.2-2,0.6-2,1.5c0,0.7,0.7,1.3,1.7,1.3c1.7,0,2.7-1.1,2.7-2.2V95.4z"/>
	</g>
	<g>
		<path class="st39" d="M31.9,87.4c0-1.5,0.8-2,2-2h5.3c2.9,0,5.2,1.4,5.2,4.8c0,2.8-1.9,4.8-5.2,4.8h-3.8v4.1c0,1-0.7,1.7-1.7,1.7
			s-1.7-0.7-1.7-1.7V87.4z M35.3,92.4h3.2c1.4,0,2.4-0.8,2.4-2.1c0-1.5-1.1-2.1-2.8-2.1h-2.9V92.4z"/>
		<path class="st39" d="M46.5,86.7c0-1,0.6-1.5,1.5-1.5s1.5,0.5,1.5,1.5v12.6c0,1-0.6,1.5-1.5,1.5s-1.5-0.5-1.5-1.5V86.7z"/>
		<path class="st39" d="M62.3,97.6c0,1.3,0.3,1.6,0.3,2.1c0,0.7-0.7,1.2-1.4,1.2c-1.3,0-1.8-0.8-1.8-1.8c-1.2,1.3-2.6,1.8-4.2,1.8
			c-1.7,0-3.5-1.2-3.5-3.1c0-2.5,1.9-3.3,4.3-3.5l1.9-0.2c0.7-0.1,1.3-0.3,1.3-1.1s-0.9-1.3-1.9-1.3c-2.3,0-2.3,1.7-3.5,1.7
			c-0.8,0-1.3-0.5-1.3-1.2c0-1.2,1.7-2.8,4.9-2.8c2.9,0,5,0.9,5,3.1V97.6z M59.3,95.4c-0.3,0.3-1,0.4-1.3,0.5L56.8,96
			c-1.3,0.2-2,0.6-2,1.5c0,0.7,0.7,1.3,1.7,1.3c1.7,0,2.7-1.1,2.7-2.2V95.4z"/>
		<path class="st39" d="M69.1,97.6L69.1,97.6l1.9-6.9c0.2-0.8,0.6-1.4,1.5-1.4c1.2,0,1.6,1,1.6,1.4c0,0.3-0.1,0.6-0.2,1l-3.5,10.1
			c-0.7,2.1-1.6,3.2-3.5,3.2c-1.4,0-1.9-0.7-1.9-1.4c0-0.8,0.6-1.2,1.4-1.2h0.3c0.4,0,0.8,0,1.1-1l-3.2-9.1
			c-0.3-0.7-0.4-1.1-0.4-1.4c0-0.8,0.7-1.5,1.5-1.5s1.4,0.5,1.6,1.2L69.1,97.6z"/>
		<path class="st39" d="M79.2,86.2c0.3-0.8,0.8-1,1.7-1h0.8c0.8,0,1.5,0.2,1.8,1.3L87.7,98c0.1,0.3,0.3,0.9,0.3,1.3
			c0,0.8-0.7,1.5-1.6,1.5c-0.8,0-1.3-0.3-1.6-0.9L84,97.4h-5.5l-0.9,2.5c-0.2,0.7-0.7,0.9-1.5,0.9c-0.9,0-1.6-0.6-1.6-1.5
			c0-0.4,0.2-1,0.3-1.3L79.2,86.2z M81.3,88.9L81.3,88.9L79.2,95h4L81.3,88.9z"/>
		<path class="st39" d="M89.7,90.7c0-0.9,0.6-1.4,1.4-1.4s1.4,0.5,1.4,1.4v1.2h0c0.4-1.3,1-2.6,2.5-2.6c1,0,1.7,0.6,1.7,1.5
			c0,1.1-0.8,1.5-1.5,1.5h-0.5c-1.2,0-1.9,0.9-1.9,3.4v3.6c0,0.8-0.3,1.5-1.5,1.5s-1.5-0.7-1.5-1.5V90.7z"/>
		<path class="st39" d="M100.6,95.6c0,1.6,1,2.8,2.8,2.8c2.3,0,2.3-1.5,3.5-1.5c0.7,0,1.3,0.6,1.3,1.2c0,1.8-3,2.7-4.8,2.7
			c-4.3,0-5.9-2.9-5.9-5.6c0-3.6,2.2-6,5.8-6c3.5,0,5.5,2.5,5.5,5c0,1-0.3,1.3-1.3,1.3H100.6z M106,93.9c-0.2-1.4-1.2-2.4-2.6-2.4
			c-1.5,0-2.5,0.9-2.8,2.4H106z"/>
		<path class="st39" d="M121.1,97.6c0,1.3,0.3,1.6,0.3,2.1c0,0.7-0.7,1.2-1.4,1.2c-1.3,0-1.8-0.8-1.8-1.8c-1.2,1.3-2.6,1.8-4.2,1.8
			c-1.7,0-3.5-1.2-3.5-3.1c0-2.5,1.9-3.3,4.3-3.5l1.9-0.2c0.7-0.1,1.3-0.3,1.3-1.1s-0.9-1.3-1.9-1.3c-2.3,0-2.3,1.7-3.5,1.7
			c-0.8,0-1.3-0.5-1.3-1.2c0-1.2,1.7-2.8,4.9-2.8c2.9,0,5,0.9,5,3.1V97.6z M118,95.4c-0.3,0.3-1,0.4-1.3,0.5l-1.1,0.2
			c-1.3,0.2-2,0.6-2,1.5c0,0.7,0.7,1.3,1.7,1.3c1.7,0,2.7-1.1,2.7-2.2V95.4z"/>
	</g>
</g>
<path class="st17" d="M33.4,213.1c0,2.1-1.7,3.8-3.8,3.8c-2.1,0-3.8-1.7-3.8-3.8c0-2.1,1.7-3.8,3.8-3.8
	C31.7,209.3,33.4,211,33.4,213.1 M22.1,213.1c0,4.2,3.4,7.5,7.5,7.5c4.2,0,7.5-3.4,7.5-7.5c0-4.2-3.4-7.5-7.5-7.5
	C25.5,205.6,22.1,208.9,22.1,213.1"/>
<path class="st24" d="M20,244.7L20,244.7c0,6.4-5.2,11.5-11.5,11.5C2.1,256.2-3,251-3,244.7c0-6.4,5.2-11.5,11.5-11.5
	C14.8,233.1,20,238.3,20,244.7 M-14.6,244.7L-14.6,244.7c0,12.7,10.3,23,23,23c12.7,0,23-10.3,23-23c0-12.7-10.3-23-23-23
	C-4.3,221.6-14.6,231.9-14.6,244.7"/>
</svg>
